<?xml version="1.0" encoding="UTF-8" standalone="no"?>
<!DOCTYPE svg PUBLIC "-//W3C//DTD SVG 1.1//EN"
 "http://www.w3.org/Graphics/SVG/1.1/DTD/svg11.dtd">
<!-- Generated by graphviz version 12.2.1 (20241206.2353)
 -->
<!-- Title: dependency&#45;cruiser output Pages: 1 -->
<svg width="1336pt" height="812pt"
 viewBox="0.00 0.00 1336.00 812.00" xmlns="http://www.w3.org/2000/svg" xmlns:xlink="http://www.w3.org/1999/xlink">
<g id="graph0" class="graph" transform="scale(1 1) rotate(0) translate(4 808)">
<title>dependency&#45;cruiser output</title>
<polygon fill="white" stroke="none" points="-4,4 -4,-808 1332,-808 1332,4 -4,4"/>
<g id="clust1" class="cluster">
<title>cluster_src</title>
<path fill="#ffffff" stroke="black" stroke-width="2" d="M20,-8C20,-8 1308,-8 1308,-8 1314,-8 1320,-14 1320,-20 1320,-20 1320,-784 1320,-784 1320,-790 1314,-796 1308,-796 1308,-796 20,-796 20,-796 14,-796 8,-790 8,-784 8,-784 8,-20 8,-20 8,-14 14,-8 20,-8"/>
<text text-anchor="middle" x="664" y="-783.45" font-family="Helvetica,sans-Serif" font-weight="bold" font-size="9.00">src</text>
</g>
<g id="clust2" class="cluster">
<title>cluster_src/app</title>
<path fill="#ffffff" stroke="black" stroke-width="2" d="M28,-206C28,-206 146,-206 146,-206 152,-206 158,-212 158,-218 158,-218 158,-247 158,-247 158,-253 152,-259 146,-259 146,-259 28,-259 28,-259 22,-259 16,-253 16,-247 16,-247 16,-218 16,-218 16,-212 22,-206 28,-206"/>
<text text-anchor="middle" x="87" y="-246.45" font-family="Helvetica,sans-Serif" font-weight="bold" font-size="9.00">app</text>
</g>
<g id="clust3" class="cluster">
<title>cluster_src/entities</title>
<path fill="#ffffff" stroke="black" stroke-width="2" d="M729.5,-549C729.5,-549 1065.5,-549 1065.5,-549 1071.5,-549 1077.5,-555 1077.5,-561 1077.5,-561 1077.5,-731 1077.5,-731 1077.5,-737 1071.5,-743 1065.5,-743 1065.5,-743 729.5,-743 729.5,-743 723.5,-743 717.5,-737 717.5,-731 717.5,-731 717.5,-561 717.5,-561 717.5,-555 723.5,-549 729.5,-549"/>
<text text-anchor="middle" x="897.5" y="-730.45" font-family="Helvetica,sans-Serif" font-weight="bold" font-size="9.00">entities</text>
</g>
<g id="clust4" class="cluster">
<title>cluster_src/entities/bookmark</title>
<path fill="#ffffff" stroke="black" stroke-width="2" d="M737.5,-557C737.5,-557 1057.5,-557 1057.5,-557 1063.5,-557 1069.5,-563 1069.5,-569 1069.5,-569 1069.5,-643 1069.5,-643 1069.5,-649 1063.5,-655 1057.5,-655 1057.5,-655 737.5,-655 737.5,-655 731.5,-655 725.5,-649 725.5,-643 725.5,-643 725.5,-569 725.5,-569 725.5,-563 731.5,-557 737.5,-557"/>
<text text-anchor="middle" x="897.5" y="-642.45" font-family="Helvetica,sans-Serif" font-weight="bold" font-size="9.00">bookmark</text>
</g>
<g id="clust5" class="cluster">
<title>cluster_src/entities/tab</title>
<path fill="#ffffff" stroke="black" stroke-width="2" d="M737.5,-663C737.5,-663 915.12,-663 915.12,-663 921.12,-663 927.12,-669 927.12,-675 927.12,-675 927.12,-704 927.12,-704 927.12,-710 921.12,-716 915.12,-716 915.12,-716 737.5,-716 737.5,-716 731.5,-716 725.5,-710 725.5,-704 725.5,-704 725.5,-675 725.5,-675 725.5,-669 731.5,-663 737.5,-663"/>
<text text-anchor="middle" x="826.31" y="-703.45" font-family="Helvetica,sans-Serif" font-weight="bold" font-size="9.00">tab</text>
</g>
<g id="clust6" class="cluster">
<title>cluster_src/features</title>
<path fill="#ffffff" stroke="black" stroke-width="2" d="M361.38,-68C361.38,-68 825.5,-68 825.5,-68 831.5,-68 837.5,-74 837.5,-80 837.5,-80 837.5,-519 837.5,-519 837.5,-525 831.5,-531 825.5,-531 825.5,-531 361.38,-531 361.38,-531 355.38,-531 349.38,-525 349.38,-519 349.38,-519 349.38,-80 349.38,-80 349.38,-74 355.38,-68 361.38,-68"/>
<text text-anchor="middle" x="593.44" y="-518.45" font-family="Helvetica,sans-Serif" font-weight="bold" font-size="9.00">features</text>
</g>
<g id="clust7" class="cluster">
<title>cluster_src/features/bookmark</title>
<path fill="#ffffff" stroke="black" stroke-width="2" d="M369.38,-76C369.38,-76 817.5,-76 817.5,-76 823.5,-76 829.5,-82 829.5,-88 829.5,-88 829.5,-274 829.5,-274 829.5,-280 823.5,-286 817.5,-286 817.5,-286 369.38,-286 369.38,-286 363.38,-286 357.38,-280 357.38,-274 357.38,-274 357.38,-88 357.38,-88 357.38,-82 363.38,-76 369.38,-76"/>
<text text-anchor="middle" x="593.44" y="-273.45" font-family="Helvetica,sans-Serif" font-weight="bold" font-size="9.00">bookmark</text>
</g>
<g id="clust8" class="cluster">
<title>cluster_src/features/bookmark/create</title>
<path fill="#ffffff" stroke="black" stroke-width="2" d="M377.38,-206C377.38,-206 687.5,-206 687.5,-206 693.5,-206 699.5,-212 699.5,-218 699.5,-218 699.5,-247 699.5,-247 699.5,-253 693.5,-259 687.5,-259 687.5,-259 377.38,-259 377.38,-259 371.38,-259 365.38,-253 365.38,-247 365.38,-247 365.38,-218 365.38,-218 365.38,-212 371.38,-206 377.38,-206"/>
<text text-anchor="middle" x="532.44" y="-246.45" font-family="Helvetica,sans-Serif" font-weight="bold" font-size="9.00">create</text>
</g>
<g id="clust9" class="cluster">
<title>cluster_src/features/bookmark/delete</title>
<path fill="#ffffff" stroke="black" stroke-width="2" d="M615.5,-84C615.5,-84 809.5,-84 809.5,-84 815.5,-84 821.5,-90 821.5,-96 821.5,-96 821.5,-125 821.5,-125 821.5,-131 815.5,-137 809.5,-137 809.5,-137 615.5,-137 615.5,-137 609.5,-137 603.5,-131 603.5,-125 603.5,-125 603.5,-96 603.5,-96 603.5,-90 609.5,-84 615.5,-84"/>
<text text-anchor="middle" x="712.5" y="-124.45" font-family="Helvetica,sans-Serif" font-weight="bold" font-size="9.00">delete</text>
</g>
<g id="clust10" class="cluster">
<title>cluster_src/features/bookmark/edit</title>
<path fill="#ffffff" stroke="black" stroke-width="2" d="M377.38,-145C377.38,-145 682.25,-145 682.25,-145 688.25,-145 694.25,-151 694.25,-157 694.25,-157 694.25,-186 694.25,-186 694.25,-192 688.25,-198 682.25,-198 682.25,-198 377.38,-198 377.38,-198 371.38,-198 365.38,-192 365.38,-186 365.38,-186 365.38,-157 365.38,-157 365.38,-151 371.38,-145 377.38,-145"/>
<text text-anchor="middle" x="529.81" y="-185.45" font-family="Helvetica,sans-Serif" font-weight="bold" font-size="9.00">edit</text>
</g>
<g id="clust11" class="cluster">
<title>cluster_src/features/folder</title>
<path fill="#ffffff" stroke="black" stroke-width="2" d="M369.38,-294C369.38,-294 565.5,-294 565.5,-294 571.5,-294 577.5,-300 577.5,-306 577.5,-306 577.5,-492 577.5,-492 577.5,-498 571.5,-504 565.5,-504 565.5,-504 369.38,-504 369.38,-504 363.38,-504 357.38,-498 357.38,-492 357.38,-492 357.38,-306 357.38,-306 357.38,-300 363.38,-294 369.38,-294"/>
<text text-anchor="middle" x="467.44" y="-491.45" font-family="Helvetica,sans-Serif" font-weight="bold" font-size="9.00">folder</text>
</g>
<g id="clust12" class="cluster">
<title>cluster_src/features/folder/create</title>
<path fill="#ffffff" stroke="black" stroke-width="2" d="M377.38,-424C377.38,-424 557.5,-424 557.5,-424 563.5,-424 569.5,-430 569.5,-436 569.5,-436 569.5,-465 569.5,-465 569.5,-471 563.5,-477 557.5,-477 557.5,-477 377.38,-477 377.38,-477 371.38,-477 365.38,-471 365.38,-465 365.38,-465 365.38,-436 365.38,-436 365.38,-430 371.38,-424 377.38,-424"/>
<text text-anchor="middle" x="467.44" y="-464.45" font-family="Helvetica,sans-Serif" font-weight="bold" font-size="9.00">create</text>
</g>
<g id="clust13" class="cluster">
<title>cluster_src/features/folder/delete</title>
<path fill="#ffffff" stroke="black" stroke-width="2" d="M377.38,-302C377.38,-302 557.5,-302 557.5,-302 563.5,-302 569.5,-308 569.5,-314 569.5,-314 569.5,-343 569.5,-343 569.5,-349 563.5,-355 557.5,-355 557.5,-355 377.38,-355 377.38,-355 371.38,-355 365.38,-349 365.38,-343 365.38,-343 365.38,-314 365.38,-314 365.38,-308 371.38,-302 377.38,-302"/>
<text text-anchor="middle" x="467.44" y="-342.45" font-family="Helvetica,sans-Serif" font-weight="bold" font-size="9.00">delete</text>
</g>
<g id="clust14" class="cluster">
<title>cluster_src/features/folder/edit</title>
<path fill="#ffffff" stroke="black" stroke-width="2" d="M377.38,-363C377.38,-363 552.25,-363 552.25,-363 558.25,-363 564.25,-369 564.25,-375 564.25,-375 564.25,-404 564.25,-404 564.25,-410 558.25,-416 552.25,-416 552.25,-416 377.38,-416 377.38,-416 371.38,-416 365.38,-410 365.38,-404 365.38,-404 365.38,-375 365.38,-375 365.38,-369 371.38,-363 377.38,-363"/>
<text text-anchor="middle" x="464.81" y="-403.45" font-family="Helvetica,sans-Serif" font-weight="bold" font-size="9.00">edit</text>
</g>
<g id="clust15" class="cluster">
<title>cluster_src/shared</title>
<path fill="#ffffff" stroke="black" stroke-width="2" d="M972.38,-35C972.38,-35 1300,-35 1300,-35 1306,-35 1312,-41 1312,-47 1312,-47 1312,-511 1312,-511 1312,-517 1306,-523 1300,-523 1300,-523 972.38,-523 972.38,-523 966.38,-523 960.38,-517 960.38,-511 960.38,-511 960.38,-47 960.38,-47 960.38,-41 966.38,-35 972.38,-35"/>
<text text-anchor="middle" x="1136.19" y="-510.45" font-family="Helvetica,sans-Serif" font-weight="bold" font-size="9.00">shared</text>
</g>
<g id="clust16" class="cluster">
<title>cluster_src/shared/chrome&#45;api&#45;mock</title>
<path fill="#ffffff" stroke="black" stroke-width="2" d="M983.62,-43C983.62,-43 1179.62,-43 1179.62,-43 1185.62,-43 1191.62,-49 1191.62,-55 1191.62,-55 1191.62,-177 1191.62,-177 1191.62,-183 1185.62,-189 1179.62,-189 1179.62,-189 983.62,-189 983.62,-189 977.62,-189 971.62,-183 971.62,-177 971.62,-177 971.62,-55 971.62,-55 971.62,-49 977.62,-43 983.62,-43"/>
<text text-anchor="middle" x="1081.62" y="-176.45" font-family="Helvetica,sans-Serif" font-weight="bold" font-size="9.00">chrome&#45;api&#45;mock</text>
</g>
<g id="clust17" class="cluster">
<title>cluster_src/shared/config</title>
<path fill="#ffffff" stroke="black" stroke-width="2" d="M983.62,-258C983.62,-258 1160.75,-258 1160.75,-258 1166.75,-258 1172.75,-264 1172.75,-270 1172.75,-270 1172.75,-299 1172.75,-299 1172.75,-305 1166.75,-311 1160.75,-311 1160.75,-311 983.62,-311 983.62,-311 977.62,-311 971.62,-305 971.62,-299 971.62,-299 971.62,-270 971.62,-270 971.62,-264 977.62,-258 983.62,-258"/>
<text text-anchor="middle" x="1072.19" y="-298.45" font-family="Helvetica,sans-Serif" font-weight="bold" font-size="9.00">config</text>
</g>
<g id="clust18" class="cluster">
<title>cluster_src/shared/icons</title>
<path fill="#ffffff" stroke="black" stroke-width="2" d="M983.62,-319C983.62,-319 1186,-319 1186,-319 1192,-319 1198,-325 1198,-331 1198,-331 1198,-484 1198,-484 1198,-490 1192,-496 1186,-496 1186,-496 983.62,-496 983.62,-496 977.62,-496 971.62,-490 971.62,-484 971.62,-484 971.62,-331 971.62,-331 971.62,-325 977.62,-319 983.62,-319"/>
<text text-anchor="middle" x="1084.81" y="-483.45" font-family="Helvetica,sans-Serif" font-weight="bold" font-size="9.00">icons</text>
</g>
<g id="clust19" class="cluster">
<title>cluster_src/shared/lib</title>
<path fill="#ffffff" stroke="black" stroke-width="2" d="M1218,-120C1218,-120 1292,-120 1292,-120 1298,-120 1304,-126 1304,-132 1304,-132 1304,-223 1304,-223 1304,-229 1298,-235 1292,-235 1292,-235 1218,-235 1218,-235 1212,-235 1206,-229 1206,-223 1206,-223 1206,-132 1206,-132 1206,-126 1212,-120 1218,-120"/>
<text text-anchor="middle" x="1255" y="-222.45" font-family="Helvetica,sans-Serif" font-weight="bold" font-size="9.00">lib</text>
</g>
<g id="clust20" class="cluster">
<title>cluster_src/shared/shared&#45;values</title>
<path fill="#ffffff" stroke="black" stroke-width="2" d="M980.38,-197C980.38,-197 1033.88,-197 1033.88,-197 1039.88,-197 1045.88,-203 1045.88,-209 1045.88,-209 1045.88,-238 1045.88,-238 1045.88,-244 1039.88,-250 1033.88,-250 1033.88,-250 980.38,-250 980.38,-250 974.38,-250 968.38,-244 968.38,-238 968.38,-238 968.38,-209 968.38,-209 968.38,-203 974.38,-197 980.38,-197"/>
<text text-anchor="middle" x="1007.12" y="-237.45" font-family="Helvetica,sans-Serif" font-weight="bold" font-size="9.00">shared&#45;values</text>
</g>
<g id="clust21" class="cluster">
<title>cluster_src/widgets</title>
<path fill="#ffffff" stroke="black" stroke-width="2" d="M178,-551C178,-551 560.62,-551 560.62,-551 566.62,-551 572.62,-557 572.62,-563 572.62,-563 572.62,-733 572.62,-733 572.62,-739 566.62,-745 560.62,-745 560.62,-745 178,-745 178,-745 172,-745 166,-739 166,-733 166,-733 166,-563 166,-563 166,-557 172,-551 178,-551"/>
<text text-anchor="middle" x="369.31" y="-732.45" font-family="Helvetica,sans-Serif" font-weight="bold" font-size="9.00">widgets</text>
</g>
<g id="clust22" class="cluster">
<title>cluster_src/widgets/GridContent</title>
<path fill="#ffffff" stroke="black" stroke-width="2" d="M186,-665C186,-665 439.62,-665 439.62,-665 445.62,-665 451.62,-671 451.62,-677 451.62,-677 451.62,-706 451.62,-706 451.62,-712 445.62,-718 439.62,-718 439.62,-718 186,-718 186,-718 180,-718 174,-712 174,-706 174,-706 174,-677 174,-677 174,-671 180,-665 186,-665"/>
<text text-anchor="middle" x="312.81" y="-705.45" font-family="Helvetica,sans-Serif" font-weight="bold" font-size="9.00">GridContent</text>
</g>
<g id="clust23" class="cluster">
<title>cluster_src/widgets/Header</title>
<path fill="#ffffff" stroke="black" stroke-width="2" d="M186,-559C186,-559 552.62,-559 552.62,-559 558.62,-559 564.62,-565 564.62,-571 564.62,-571 564.62,-645 564.62,-645 564.62,-651 558.62,-657 552.62,-657 552.62,-657 186,-657 186,-657 180,-657 174,-651 174,-645 174,-645 174,-571 174,-571 174,-565 180,-559 186,-559"/>
<text text-anchor="middle" x="369.31" y="-644.45" font-family="Helvetica,sans-Serif" font-weight="bold" font-size="9.00">Header</text>
</g>
<!-- src/app/app.tsx -->
<g id="node1" class="node">
<title>src/app/app.tsx</title>
<g id="a_node1"><a xlink:href="src/app/app.tsx" xlink:title="app.tsx">
<path fill="#bbfeff" stroke="black" d="M143.83,-232.25C143.83,-232.25 102.17,-232.25 102.17,-232.25 99.08,-232.25 96,-229.17 96,-226.08 96,-226.08 96,-219.92 96,-219.92 96,-216.83 99.08,-213.75 102.17,-213.75 102.17,-213.75 143.83,-213.75 143.83,-213.75 146.92,-213.75 150,-216.83 150,-219.92 150,-219.92 150,-226.08 150,-226.08 150,-229.17 146.92,-232.25 143.83,-232.25"/>
<text text-anchor="start" x="108.38" y="-219.7" font-family="Helvetica,sans-Serif" font-size="9.00">app.tsx</text>
</a>
</g>
</g>
<!-- src/entities/bookmark/index.ts -->
<g id="node2" class="node">
<title>src/entities/bookmark/index.ts</title>
<g id="a_node2"><a xlink:href="src/entities/bookmark/index.ts" xlink:title="index.ts">
<path fill="#ddfeff" stroke="black" d="M781.33,-591.25C781.33,-591.25 739.67,-591.25 739.67,-591.25 736.58,-591.25 733.5,-588.17 733.5,-585.08 733.5,-585.08 733.5,-578.92 733.5,-578.92 733.5,-575.83 736.58,-572.75 739.67,-572.75 739.67,-572.75 781.33,-572.75 781.33,-572.75 784.42,-572.75 787.5,-575.83 787.5,-578.92 787.5,-578.92 787.5,-585.08 787.5,-585.08 787.5,-588.17 784.42,-591.25 781.33,-591.25"/>
<text text-anchor="start" x="744.75" y="-578.7" font-family="Helvetica,sans-Serif" font-size="9.00">index.ts</text>
</a>
</g>
</g>
<!-- src/app/app.tsx&#45;&gt;src/entities/bookmark/index.ts -->
<g id="edge1" class="edge">
<title>src/app/app.tsx&#45;&gt;src/entities/bookmark/index.ts</title>
<path fill="none" stroke="#000000" stroke-width="2" stroke-opacity="0.200000" d="M124.15,-232.54C125.29,-298.24 133.31,-682.17 166,-721 203.39,-765.41 234.32,-754 292.38,-754 292.38,-754 292.38,-754 518.12,-754 607.72,-754 631.04,-723.8 699.5,-666 721.96,-647.04 740.27,-617.89 750.53,-599.39"/>
<polygon fill="#000000" fill-opacity="0.200000" stroke="#000000" stroke-width="2" stroke-opacity="0.200000" points="752.35,-600.44 753.35,-594.16 748.65,-598.45 752.35,-600.44"/>
</g>
<!-- src/features/bookmark/create/index.ts -->
<g id="node3" class="node">
<title>src/features/bookmark/create/index.ts</title>
<g id="a_node3"><a xlink:href="src/features/bookmark/create/index.ts" xlink:title="index.ts">
<path fill="#ddfeff" stroke="black" d="M421.21,-232.25C421.21,-232.25 379.54,-232.25 379.54,-232.25 376.46,-232.25 373.38,-229.17 373.38,-226.08 373.38,-226.08 373.38,-219.92 373.38,-219.92 373.38,-216.83 376.46,-213.75 379.54,-213.75 379.54,-213.75 421.21,-213.75 421.21,-213.75 424.29,-213.75 427.38,-216.83 427.38,-219.92 427.38,-219.92 427.38,-226.08 427.38,-226.08 427.38,-229.17 424.29,-232.25 421.21,-232.25"/>
<text text-anchor="start" x="384.62" y="-219.7" font-family="Helvetica,sans-Serif" font-size="9.00">index.ts</text>
</a>
</g>
</g>
<!-- src/app/app.tsx&#45;&gt;src/features/bookmark/create/index.ts -->
<g id="edge2" class="edge">
<title>src/app/app.tsx&#45;&gt;src/features/bookmark/create/index.ts</title>
<path fill="none" stroke="#000000" stroke-width="2" stroke-opacity="0.200000" d="M150.4,-223C200.26,-223 308.27,-223 364.21,-223"/>
<polygon fill="#000000" fill-opacity="0.200000" stroke="#000000" stroke-width="2" stroke-opacity="0.200000" points="364.02,-225.1 370.02,-223 364.02,-220.9 364.02,-225.1"/>
</g>
<!-- src/features/bookmark/edit/index.ts -->
<g id="node4" class="node">
<title>src/features/bookmark/edit/index.ts</title>
<g id="a_node4"><a xlink:href="src/features/bookmark/edit/index.ts" xlink:title="index.ts">
<path fill="#ddfeff" stroke="black" d="M421.21,-171.25C421.21,-171.25 379.54,-171.25 379.54,-171.25 376.46,-171.25 373.38,-168.17 373.38,-165.08 373.38,-165.08 373.38,-158.92 373.38,-158.92 373.38,-155.83 376.46,-152.75 379.54,-152.75 379.54,-152.75 421.21,-152.75 421.21,-152.75 424.29,-152.75 427.38,-155.83 427.38,-158.92 427.38,-158.92 427.38,-165.08 427.38,-165.08 427.38,-168.17 424.29,-171.25 421.21,-171.25"/>
<text text-anchor="start" x="384.62" y="-158.7" font-family="Helvetica,sans-Serif" font-size="9.00">index.ts</text>
</a>
</g>
</g>
<!-- src/app/app.tsx&#45;&gt;src/features/bookmark/edit/index.ts -->
<g id="edge3" class="edge">
<title>src/app/app.tsx&#45;&gt;src/features/bookmark/edit/index.ts</title>
<path fill="none" stroke="#000000" stroke-width="2" stroke-opacity="0.200000" d="M150.4,-217.15C200.37,-206.08 308.72,-182.08 364.56,-169.71"/>
<polygon fill="#000000" fill-opacity="0.200000" stroke="#000000" stroke-width="2" stroke-opacity="0.200000" points="364.69,-171.83 370.1,-168.49 363.78,-167.73 364.69,-171.83"/>
</g>
<!-- src/widgets/GridContent/index.ts -->
<g id="node5" class="node">
<title>src/widgets/GridContent/index.ts</title>
<g id="a_node5"><a xlink:href="src/widgets/GridContent/index.ts" xlink:title="index.ts">
<path fill="#ddfeff" stroke="black" d="M229.83,-691.25C229.83,-691.25 188.17,-691.25 188.17,-691.25 185.08,-691.25 182,-688.17 182,-685.08 182,-685.08 182,-678.92 182,-678.92 182,-675.83 185.08,-672.75 188.17,-672.75 188.17,-672.75 229.83,-672.75 229.83,-672.75 232.92,-672.75 236,-675.83 236,-678.92 236,-678.92 236,-685.08 236,-685.08 236,-688.17 232.92,-691.25 229.83,-691.25"/>
<text text-anchor="start" x="193.25" y="-678.7" font-family="Helvetica,sans-Serif" font-size="9.00">index.ts</text>
</a>
</g>
</g>
<!-- src/app/app.tsx&#45;&gt;src/widgets/GridContent/index.ts -->
<g id="edge4" class="edge">
<title>src/app/app.tsx&#45;&gt;src/widgets/GridContent/index.ts</title>
<path fill="none" stroke="#000000" stroke-width="2" stroke-opacity="0.200000" d="M124.37,-232.44C126.82,-292.8 141.28,-623.24 166,-660 168.23,-663.32 171.13,-666.17 174.35,-668.61"/>
<polygon fill="#000000" fill-opacity="0.200000" stroke="#000000" stroke-width="2" stroke-opacity="0.200000" points="173.07,-670.28 179.26,-671.71 175.31,-666.73 173.07,-670.28"/>
</g>
<!-- src/widgets/Header/index.ts -->
<g id="node6" class="node">
<title>src/widgets/Header/index.ts</title>
<g id="a_node6"><a xlink:href="src/widgets/Header/index.ts" xlink:title="index.ts">
<path fill="#ddfeff" stroke="black" d="M229.83,-585.25C229.83,-585.25 188.17,-585.25 188.17,-585.25 185.08,-585.25 182,-582.17 182,-579.08 182,-579.08 182,-572.92 182,-572.92 182,-569.83 185.08,-566.75 188.17,-566.75 188.17,-566.75 229.83,-566.75 229.83,-566.75 232.92,-566.75 236,-569.83 236,-572.92 236,-572.92 236,-579.08 236,-579.08 236,-582.17 232.92,-585.25 229.83,-585.25"/>
<text text-anchor="start" x="193.25" y="-572.7" font-family="Helvetica,sans-Serif" font-size="9.00">index.ts</text>
</a>
</g>
</g>
<!-- src/app/app.tsx&#45;&gt;src/widgets/Header/index.ts -->
<g id="edge5" class="edge">
<title>src/app/app.tsx&#45;&gt;src/widgets/Header/index.ts</title>
<path fill="none" stroke="#000000" stroke-width="2" stroke-opacity="0.200000" d="M126.25,-232.44C137.56,-280 188.38,-493.53 203.65,-557.7"/>
<polygon fill="#000000" fill-opacity="0.200000" stroke="#000000" stroke-width="2" stroke-opacity="0.200000" points="201.57,-558.07 205.01,-563.42 205.66,-557.1 201.57,-558.07"/>
</g>
<!-- src/entities/bookmark/bookmark.api.ts -->
<g id="node10" class="node">
<title>src/entities/bookmark/bookmark.api.ts</title>
<g id="a_node10"><a xlink:href="src/entities/bookmark/bookmark.api.ts" xlink:title="bookmark.api.ts">
<path fill="#ddfeff" stroke="black" d="M1040.71,-583.25C1040.71,-583.25 972.54,-583.25 972.54,-583.25 969.46,-583.25 966.38,-580.17 966.38,-577.08 966.38,-577.08 966.38,-570.92 966.38,-570.92 966.38,-567.83 969.46,-564.75 972.54,-564.75 972.54,-564.75 1040.71,-564.75 1040.71,-564.75 1043.79,-564.75 1046.88,-567.83 1046.88,-570.92 1046.88,-570.92 1046.88,-577.08 1046.88,-577.08 1046.88,-580.17 1043.79,-583.25 1040.71,-583.25"/>
<text text-anchor="start" x="974.38" y="-570.7" font-family="Helvetica,sans-Serif" font-size="9.00">bookmark.api.ts</text>
</a>
</g>
</g>
<!-- src/entities/bookmark/index.ts&#45;&gt;src/entities/bookmark/bookmark.api.ts -->
<g id="edge14" class="edge">
<title>src/entities/bookmark/index.ts&#45;&gt;src/entities/bookmark/bookmark.api.ts</title>
<path fill="none" stroke="#000000" stroke-width="2" stroke-opacity="0.200000" d="M777.52,-591.75C793.91,-601.11 820.47,-614.6 845.5,-620 886.01,-628.74 904.1,-642.75 938.75,-620 950.9,-612.02 940.88,-599.64 951.75,-590 954.22,-587.81 956.98,-585.92 959.91,-584.29"/>
<polygon fill="#000000" fill-opacity="0.200000" stroke="#000000" stroke-width="2" stroke-opacity="0.200000" points="966.13,-583.61 959.81,-584.33 964.3,-579.83 966.13,-583.61"/>
</g>
<!-- src/entities/bookmark/bookmark.model.ts -->
<g id="node11" class="node">
<title>src/entities/bookmark/bookmark.model.ts</title>
<g id="a_node11"><a xlink:href="src/entities/bookmark/bookmark.model.ts" xlink:title="bookmark.model.ts">
<path fill="#ddfeff" stroke="black" d="M932.58,-583.25C932.58,-583.25 851.67,-583.25 851.67,-583.25 848.58,-583.25 845.5,-580.17 845.5,-577.08 845.5,-577.08 845.5,-570.92 845.5,-570.92 845.5,-567.83 848.58,-564.75 851.67,-564.75 851.67,-564.75 932.58,-564.75 932.58,-564.75 935.67,-564.75 938.75,-567.83 938.75,-570.92 938.75,-570.92 938.75,-577.08 938.75,-577.08 938.75,-580.17 935.67,-583.25 932.58,-583.25"/>
<text text-anchor="start" x="853.5" y="-570.7" font-family="Helvetica,sans-Serif" font-size="9.00">bookmark.model.ts</text>
</a>
</g>
</g>
<!-- src/entities/bookmark/index.ts&#45;&gt;src/entities/bookmark/bookmark.model.ts -->
<g id="edge15" class="edge">
<title>src/entities/bookmark/index.ts&#45;&gt;src/entities/bookmark/bookmark.model.ts</title>
<path fill="none" stroke="#000000" stroke-width="2" stroke-opacity="0.200000" d="M787.73,-580.38C802.3,-579.48 820.95,-578.33 838.39,-577.25"/>
<polygon fill="#000000" fill-opacity="0.200000" stroke="#000000" stroke-width="2" stroke-opacity="0.200000" points="844.39,-578.99 838.27,-577.26 844.13,-574.8 844.39,-578.99"/>
</g>
<!-- src/entities/bookmark/bookmark.ui.tsx -->
<g id="node13" class="node">
<title>src/entities/bookmark/bookmark.ui.tsx</title>
<g id="a_node13"><a xlink:href="src/entities/bookmark/bookmark.ui.tsx" xlink:title="bookmark.ui.tsx">
<path fill="#bbfeff" stroke="black" d="M925.83,-614.25C925.83,-614.25 858.42,-614.25 858.42,-614.25 855.33,-614.25 852.25,-611.17 852.25,-608.08 852.25,-608.08 852.25,-601.92 852.25,-601.92 852.25,-598.83 855.33,-595.75 858.42,-595.75 858.42,-595.75 925.83,-595.75 925.83,-595.75 928.92,-595.75 932,-598.83 932,-601.92 932,-601.92 932,-608.08 932,-608.08 932,-611.17 928.92,-614.25 925.83,-614.25"/>
<text text-anchor="start" x="860.25" y="-601.7" font-family="Helvetica,sans-Serif" font-size="9.00">bookmark.ui.tsx</text>
</a>
</g>
</g>
<!-- src/entities/bookmark/index.ts&#45;&gt;src/entities/bookmark/bookmark.ui.tsx -->
<g id="edge16" class="edge">
<title>src/entities/bookmark/index.ts&#45;&gt;src/entities/bookmark/bookmark.ui.tsx</title>
<path fill="none" stroke="#000000" stroke-width="2" stroke-opacity="0.200000" d="M787.73,-586.65C804.2,-589.58 825.9,-593.43 845.17,-596.85"/>
<polygon fill="#000000" fill-opacity="0.200000" stroke="#000000" stroke-width="2" stroke-opacity="0.200000" points="850.79,-599.98 845.25,-596.86 851.52,-595.84 850.79,-599.98"/>
</g>
<!-- src/features/bookmark/create/bookmark&#45;create.ui.tsx -->
<g id="node19" class="node">
<title>src/features/bookmark/create/bookmark&#45;create.ui.tsx</title>
<g id="a_node19"><a xlink:href="src/features/bookmark/create/bookmark-create.ui.tsx" xlink:title="bookmark&#45;create.ui.tsx">
<path fill="#bbfeff" stroke="black" d="M565.08,-232.25C565.08,-232.25 469.17,-232.25 469.17,-232.25 466.08,-232.25 463,-229.17 463,-226.08 463,-226.08 463,-219.92 463,-219.92 463,-216.83 466.08,-213.75 469.17,-213.75 469.17,-213.75 565.08,-213.75 565.08,-213.75 568.17,-213.75 571.25,-216.83 571.25,-219.92 571.25,-219.92 571.25,-226.08 571.25,-226.08 571.25,-229.17 568.17,-232.25 565.08,-232.25"/>
<text text-anchor="start" x="471" y="-219.7" font-family="Helvetica,sans-Serif" font-size="9.00">bookmark&#45;create.ui.tsx</text>
</a>
</g>
</g>
<!-- src/features/bookmark/create/index.ts&#45;&gt;src/features/bookmark/create/bookmark&#45;create.ui.tsx -->
<g id="edge21" class="edge">
<title>src/features/bookmark/create/index.ts&#45;&gt;src/features/bookmark/create/bookmark&#45;create.ui.tsx</title>
<path fill="none" stroke="#000000" stroke-width="2" stroke-opacity="0.200000" d="M427.7,-223C436.11,-223 445.8,-223 455.61,-223"/>
<polygon fill="#000000" fill-opacity="0.200000" stroke="#000000" stroke-width="2" stroke-opacity="0.200000" points="461.76,-225.1 455.76,-223 461.76,-220.9 461.76,-225.1"/>
</g>
<!-- src/features/bookmark/edit/bookmark&#45;edit.ui.tsx -->
<g id="node24" class="node">
<title>src/features/bookmark/edit/bookmark&#45;edit.ui.tsx</title>
<g id="a_node24"><a xlink:href="src/features/bookmark/edit/bookmark-edit.ui.tsx" xlink:title="bookmark&#45;edit.ui.tsx">
<path fill="#bbfeff" stroke="black" d="M559.83,-171.25C559.83,-171.25 474.42,-171.25 474.42,-171.25 471.33,-171.25 468.25,-168.17 468.25,-165.08 468.25,-165.08 468.25,-158.92 468.25,-158.92 468.25,-155.83 471.33,-152.75 474.42,-152.75 474.42,-152.75 559.83,-152.75 559.83,-152.75 562.92,-152.75 566,-155.83 566,-158.92 566,-158.92 566,-165.08 566,-165.08 566,-168.17 562.92,-171.25 559.83,-171.25"/>
<text text-anchor="start" x="476.25" y="-158.7" font-family="Helvetica,sans-Serif" font-size="9.00">bookmark&#45;edit.ui.tsx</text>
</a>
</g>
</g>
<!-- src/features/bookmark/edit/index.ts&#45;&gt;src/features/bookmark/edit/bookmark&#45;edit.ui.tsx -->
<g id="edge28" class="edge">
<title>src/features/bookmark/edit/index.ts&#45;&gt;src/features/bookmark/edit/bookmark&#45;edit.ui.tsx</title>
<path fill="none" stroke="#000000" stroke-width="2" stroke-opacity="0.200000" d="M427.7,-162C437.56,-162 449.18,-162 460.69,-162"/>
<polygon fill="#000000" fill-opacity="0.200000" stroke="#000000" stroke-width="2" stroke-opacity="0.200000" points="466.83,-164.1 460.83,-162 466.83,-159.9 466.83,-164.1"/>
</g>
<!-- src/widgets/GridContent/GridContent.ui.tsx -->
<g id="node45" class="node">
<title>src/widgets/GridContent/GridContent.ui.tsx</title>
<g id="a_node45"><a xlink:href="src/widgets/GridContent/GridContent.ui.tsx" xlink:title="GridContent.ui.tsx">
<path fill="#bbfeff" stroke="black" d="M331.58,-691.25C331.58,-691.25 255.17,-691.25 255.17,-691.25 252.08,-691.25 249,-688.17 249,-685.08 249,-685.08 249,-678.92 249,-678.92 249,-675.83 252.08,-672.75 255.17,-672.75 255.17,-672.75 331.58,-672.75 331.58,-672.75 334.67,-672.75 337.75,-675.83 337.75,-678.92 337.75,-678.92 337.75,-685.08 337.75,-685.08 337.75,-688.17 334.67,-691.25 331.58,-691.25"/>
<text text-anchor="start" x="257" y="-678.7" font-family="Helvetica,sans-Serif" font-size="9.00">GridContent.ui.tsx</text>
</a>
</g>
</g>
<!-- src/widgets/GridContent/index.ts&#45;&gt;src/widgets/GridContent/GridContent.ui.tsx -->
<g id="edge52" class="edge">
<title>src/widgets/GridContent/index.ts&#45;&gt;src/widgets/GridContent/GridContent.ui.tsx</title>
<path fill="none" stroke="#000000" stroke-width="2" stroke-opacity="0.200000" d="M236.06,-682C237.96,-682 239.91,-682 241.89,-682"/>
<polygon fill="#000000" fill-opacity="0.200000" stroke="#000000" stroke-width="2" stroke-opacity="0.200000" points="247.72,-684.1 241.72,-682 247.72,-679.9 247.72,-684.1"/>
</g>
<!-- src/widgets/Header/Header.ui.tsx -->
<g id="node49" class="node">
<title>src/widgets/Header/Header.ui.tsx</title>
<g id="a_node49"><a xlink:href="src/widgets/Header/Header.ui.tsx" xlink:title="Header.ui.tsx">
<path fill="#bbfeff" stroke="black" d="M321.83,-585.25C321.83,-585.25 264.92,-585.25 264.92,-585.25 261.83,-585.25 258.75,-582.17 258.75,-579.08 258.75,-579.08 258.75,-572.92 258.75,-572.92 258.75,-569.83 261.83,-566.75 264.92,-566.75 264.92,-566.75 321.83,-566.75 321.83,-566.75 324.92,-566.75 328,-569.83 328,-572.92 328,-572.92 328,-579.08 328,-579.08 328,-582.17 324.92,-585.25 321.83,-585.25"/>
<text text-anchor="start" x="266.75" y="-572.7" font-family="Helvetica,sans-Serif" font-size="9.00">Header.ui.tsx</text>
</a>
</g>
</g>
<!-- src/widgets/Header/index.ts&#45;&gt;src/widgets/Header/Header.ui.tsx -->
<g id="edge62" class="edge">
<title>src/widgets/Header/index.ts&#45;&gt;src/widgets/Header/Header.ui.tsx</title>
<path fill="none" stroke="#000000" stroke-width="2" stroke-opacity="0.200000" d="M236.06,-576C240.92,-576 246.11,-576 251.3,-576"/>
<polygon fill="#000000" fill-opacity="0.200000" stroke="#000000" stroke-width="2" stroke-opacity="0.200000" points="257.33,-578.1 251.33,-576 257.33,-573.9 257.33,-578.1"/>
</g>
<!-- src/app/index.tsx -->
<g id="node7" class="node">
<title>src/app/index.tsx</title>
<g id="a_node7"><a xlink:href="src/app/index.tsx" xlink:title="index.tsx">
<path fill="#bbfeff" stroke="black" d="M71.83,-232.25C71.83,-232.25 30.17,-232.25 30.17,-232.25 27.08,-232.25 24,-229.17 24,-226.08 24,-226.08 24,-219.92 24,-219.92 24,-216.83 27.08,-213.75 30.17,-213.75 30.17,-213.75 71.83,-213.75 71.83,-213.75 74.92,-213.75 78,-216.83 78,-219.92 78,-219.92 78,-226.08 78,-226.08 78,-229.17 74.92,-232.25 71.83,-232.25"/>
<text text-anchor="start" x="33" y="-219.7" font-family="Helvetica,sans-Serif" font-size="9.00">index.tsx</text>
</a>
</g>
</g>
<!-- src/app/index.tsx&#45;&gt;src/app/app.tsx -->
<g id="edge6" class="edge">
<title>src/app/index.tsx&#45;&gt;src/app/app.tsx</title>
<path fill="none" stroke="#000000" stroke-width="2" stroke-opacity="0.200000" d="M78.46,-223C81.24,-223 84.09,-223 86.94,-223"/>
<polygon fill="#000000" fill-opacity="0.200000" stroke="#000000" stroke-width="2" stroke-opacity="0.200000" points="86.94,-225.1 92.94,-223 86.94,-220.9 86.94,-225.1"/>
</g>
<!-- src/shared/chrome&#45;api&#45;mock/index.ts -->
<g id="node8" class="node">
<title>src/shared/chrome&#45;api&#45;mock/index.ts</title>
<g id="a_node8"><a xlink:href="src/shared/chrome-api-mock/index.ts" xlink:title="index.ts">
<path fill="#ddfeff" stroke="black" d="M1027.46,-100.25C1027.46,-100.25 985.79,-100.25 985.79,-100.25 982.71,-100.25 979.62,-97.17 979.62,-94.08 979.62,-94.08 979.62,-87.92 979.62,-87.92 979.62,-84.83 982.71,-81.75 985.79,-81.75 985.79,-81.75 1027.46,-81.75 1027.46,-81.75 1030.54,-81.75 1033.62,-84.83 1033.62,-87.92 1033.62,-87.92 1033.62,-94.08 1033.62,-94.08 1033.62,-97.17 1030.54,-100.25 1027.46,-100.25"/>
<text text-anchor="start" x="990.88" y="-87.7" font-family="Helvetica,sans-Serif" font-size="9.00">index.ts</text>
</a>
</g>
</g>
<!-- src/app/index.tsx&#45;&gt;src/shared/chrome&#45;api&#45;mock/index.ts -->
<g id="edge7" class="edge">
<title>src/app/index.tsx&#45;&gt;src/shared/chrome&#45;api&#45;mock/index.ts</title>
<path fill="none" stroke="#000000" stroke-width="2" stroke-opacity="0.200000" d="M52.26,-213.35C53.44,-187.57 59.97,-116.1 96,-73 131.69,-30.3 152.35,-17 208,-17 208,-17 208,-17 761.5,-17 840.4,-17 866.38,4.44 938.75,-27 962.06,-37.13 982.09,-59.16 993.99,-74.53"/>
<polygon fill="#000000" fill-opacity="0.200000" stroke="#000000" stroke-width="2" stroke-opacity="0.200000" points="992.08,-75.48 997.36,-79.03 995.45,-72.97 992.08,-75.48"/>
</g>
<!-- src/shared/config/index.ts -->
<g id="node9" class="node">
<title>src/shared/config/index.ts</title>
<g id="a_node9"><a xlink:href="src/shared/config/index.ts" xlink:title="index.ts">
<path fill="#ddfeff" stroke="black" d="M1027.46,-284.25C1027.46,-284.25 985.79,-284.25 985.79,-284.25 982.71,-284.25 979.62,-281.17 979.62,-278.08 979.62,-278.08 979.62,-271.92 979.62,-271.92 979.62,-268.83 982.71,-265.75 985.79,-265.75 985.79,-265.75 1027.46,-265.75 1027.46,-265.75 1030.54,-265.75 1033.62,-268.83 1033.62,-271.92 1033.62,-271.92 1033.62,-278.08 1033.62,-278.08 1033.62,-281.17 1030.54,-284.25 1027.46,-284.25"/>
<text text-anchor="start" x="990.88" y="-271.7" font-family="Helvetica,sans-Serif" font-size="9.00">index.ts</text>
</a>
</g>
</g>
<!-- src/app/index.tsx&#45;&gt;src/shared/config/index.ts -->
<g id="edge8" class="edge">
<title>src/app/index.tsx&#45;&gt;src/shared/config/index.ts</title>
<path fill="none" stroke="#000000" stroke-width="2" stroke-opacity="0.200000" d="M55.44,-213.71C68.96,-179.02 121.94,-59 208,-59 208,-59 208,-59 761.5,-59 796.66,-59 809.15,-60.19 837.5,-81 911.49,-135.3 880.74,-194.86 951.75,-253 957.48,-257.69 964.35,-261.5 971.23,-264.55"/>
<polygon fill="#000000" fill-opacity="0.200000" stroke="#000000" stroke-width="2" stroke-opacity="0.200000" points="970.09,-266.35 976.44,-266.65 971.66,-262.46 970.09,-266.35"/>
</g>
<!-- src/shared/chrome&#45;api&#45;mock/bookmark.mock.ts -->
<g id="node31" class="node">
<title>src/shared/chrome&#45;api&#45;mock/bookmark.mock.ts</title>
<g id="a_node31"><a xlink:href="src/shared/chrome-api-mock/bookmark.mock.ts" xlink:title="bookmark.mock.ts">
<path fill="#ddfeff" stroke="black" d="M1176.33,-162.25C1176.33,-162.25 1099.17,-162.25 1099.17,-162.25 1096.08,-162.25 1093,-159.17 1093,-156.08 1093,-156.08 1093,-149.92 1093,-149.92 1093,-146.83 1096.08,-143.75 1099.17,-143.75 1099.17,-143.75 1176.33,-143.75 1176.33,-143.75 1179.42,-143.75 1182.5,-146.83 1182.5,-149.92 1182.5,-149.92 1182.5,-156.08 1182.5,-156.08 1182.5,-159.17 1179.42,-162.25 1176.33,-162.25"/>
<text text-anchor="start" x="1101" y="-149.7" font-family="Helvetica,sans-Serif" font-size="9.00">bookmark.mock.ts</text>
</a>
</g>
</g>
<!-- src/shared/chrome&#45;api&#45;mock/index.ts&#45;&gt;src/shared/chrome&#45;api&#45;mock/bookmark.mock.ts -->
<g id="edge36" class="edge">
<title>src/shared/chrome&#45;api&#45;mock/index.ts&#45;&gt;src/shared/chrome&#45;api&#45;mock/bookmark.mock.ts</title>
<path fill="none" stroke="#000000" stroke-width="2" stroke-opacity="0.200000" d="M1021.73,-100.69C1036.93,-110.8 1062.11,-126.61 1085.5,-137 1088.1,-138.15 1090.8,-139.26 1093.56,-140.31"/>
<polygon fill="#000000" fill-opacity="0.200000" stroke="#000000" stroke-width="2" stroke-opacity="0.200000" points="1092.68,-142.23 1099.04,-142.29 1094.1,-138.28 1092.68,-142.23"/>
</g>
<!-- src/shared/chrome&#45;api&#45;mock/runtime.mock.ts -->
<g id="node33" class="node">
<title>src/shared/chrome&#45;api&#45;mock/runtime.mock.ts</title>
<g id="a_node33"><a xlink:href="src/shared/chrome-api-mock/runtime.mock.ts" xlink:title="runtime.mock.ts">
<path fill="#ddfeff" stroke="black" d="M1171.46,-69.25C1171.46,-69.25 1104.04,-69.25 1104.04,-69.25 1100.96,-69.25 1097.88,-66.17 1097.88,-63.08 1097.88,-63.08 1097.88,-56.92 1097.88,-56.92 1097.88,-53.83 1100.96,-50.75 1104.04,-50.75 1104.04,-50.75 1171.46,-50.75 1171.46,-50.75 1174.54,-50.75 1177.62,-53.83 1177.62,-56.92 1177.62,-56.92 1177.62,-63.08 1177.62,-63.08 1177.62,-66.17 1174.54,-69.25 1171.46,-69.25"/>
<text text-anchor="start" x="1105.88" y="-56.7" font-family="Helvetica,sans-Serif" font-size="9.00">runtime.mock.ts</text>
</a>
</g>
</g>
<!-- src/shared/chrome&#45;api&#45;mock/index.ts&#45;&gt;src/shared/chrome&#45;api&#45;mock/runtime.mock.ts -->
<g id="edge37" class="edge">
<title>src/shared/chrome&#45;api&#45;mock/index.ts&#45;&gt;src/shared/chrome&#45;api&#45;mock/runtime.mock.ts</title>
<path fill="none" stroke="#000000" stroke-width="2" stroke-opacity="0.200000" d="M1034.07,-84.65C1049.86,-80.86 1070.4,-75.93 1088.96,-71.47"/>
<polygon fill="#000000" fill-opacity="0.200000" stroke="#000000" stroke-width="2" stroke-opacity="0.200000" points="1089.31,-73.55 1094.65,-70.11 1088.33,-69.47 1089.31,-73.55"/>
</g>
<!-- src/shared/chrome&#45;api&#45;mock/tab.mock.ts -->
<g id="node34" class="node">
<title>src/shared/chrome&#45;api&#45;mock/tab.mock.ts</title>
<g id="a_node34"><a xlink:href="src/shared/chrome-api-mock/tab.mock.ts" xlink:title="tab.mock.ts">
<path fill="#ddfeff" stroke="black" d="M1162.46,-131.25C1162.46,-131.25 1113.04,-131.25 1113.04,-131.25 1109.96,-131.25 1106.88,-128.17 1106.88,-125.08 1106.88,-125.08 1106.88,-118.92 1106.88,-118.92 1106.88,-115.83 1109.96,-112.75 1113.04,-112.75 1113.04,-112.75 1162.46,-112.75 1162.46,-112.75 1165.54,-112.75 1168.62,-115.83 1168.62,-118.92 1168.62,-118.92 1168.62,-125.08 1168.62,-125.08 1168.62,-128.17 1165.54,-131.25 1162.46,-131.25"/>
<text text-anchor="start" x="1114.88" y="-118.7" font-family="Helvetica,sans-Serif" font-size="9.00">tab.mock.ts</text>
</a>
</g>
</g>
<!-- src/shared/chrome&#45;api&#45;mock/index.ts&#45;&gt;src/shared/chrome&#45;api&#45;mock/tab.mock.ts -->
<g id="edge38" class="edge">
<title>src/shared/chrome&#45;api&#45;mock/index.ts&#45;&gt;src/shared/chrome&#45;api&#45;mock/tab.mock.ts</title>
<path fill="none" stroke="#000000" stroke-width="2" stroke-opacity="0.200000" d="M1034.07,-97.35C1052.53,-101.78 1077.48,-107.77 1098.16,-112.73"/>
<polygon fill="#000000" fill-opacity="0.200000" stroke="#000000" stroke-width="2" stroke-opacity="0.200000" points="1097.46,-114.73 1103.78,-114.09 1098.44,-110.64 1097.46,-114.73"/>
</g>
<!-- src/shared/chrome&#45;api&#45;mock/tabGroups.mock.ts -->
<g id="node35" class="node">
<title>src/shared/chrome&#45;api&#45;mock/tabGroups.mock.ts</title>
<g id="a_node35"><a xlink:href="src/shared/chrome-api-mock/tabGroups.mock.ts" xlink:title="tabGroups.mock.ts">
<path fill="#ddfeff" stroke="black" d="M1177.46,-100.25C1177.46,-100.25 1098.04,-100.25 1098.04,-100.25 1094.96,-100.25 1091.88,-97.17 1091.88,-94.08 1091.88,-94.08 1091.88,-87.92 1091.88,-87.92 1091.88,-84.83 1094.96,-81.75 1098.04,-81.75 1098.04,-81.75 1177.46,-81.75 1177.46,-81.75 1180.54,-81.75 1183.62,-84.83 1183.62,-87.92 1183.62,-87.92 1183.62,-94.08 1183.62,-94.08 1183.62,-97.17 1180.54,-100.25 1177.46,-100.25"/>
<text text-anchor="start" x="1099.88" y="-87.7" font-family="Helvetica,sans-Serif" font-size="9.00">tabGroups.mock.ts</text>
</a>
</g>
</g>
<!-- src/shared/chrome&#45;api&#45;mock/index.ts&#45;&gt;src/shared/chrome&#45;api&#45;mock/tabGroups.mock.ts -->
<g id="edge39" class="edge">
<title>src/shared/chrome&#45;api&#45;mock/index.ts&#45;&gt;src/shared/chrome&#45;api&#45;mock/tabGroups.mock.ts</title>
<path fill="none" stroke="#000000" stroke-width="2" stroke-opacity="0.200000" d="M1034.07,-91C1048.14,-91 1065.98,-91 1082.83,-91"/>
<polygon fill="#000000" fill-opacity="0.200000" stroke="#000000" stroke-width="2" stroke-opacity="0.200000" points="1082.49,-93.1 1088.49,-91 1082.49,-88.9 1082.49,-93.1"/>
</g>
<!-- src/shared/config/env.ts -->
<g id="node36" class="node">
<title>src/shared/config/env.ts</title>
<g id="a_node36"><a xlink:href="src/shared/config/env.ts" xlink:title="env.ts">
<path fill="#ddfeff" stroke="black" d="M1158.58,-284.25C1158.58,-284.25 1116.92,-284.25 1116.92,-284.25 1113.83,-284.25 1110.75,-281.17 1110.75,-278.08 1110.75,-278.08 1110.75,-271.92 1110.75,-271.92 1110.75,-268.83 1113.83,-265.75 1116.92,-265.75 1116.92,-265.75 1158.58,-265.75 1158.58,-265.75 1161.67,-265.75 1164.75,-268.83 1164.75,-271.92 1164.75,-271.92 1164.75,-278.08 1164.75,-278.08 1164.75,-281.17 1161.67,-284.25 1158.58,-284.25"/>
<text text-anchor="start" x="1126.12" y="-271.7" font-family="Helvetica,sans-Serif" font-size="9.00">env.ts</text>
</a>
</g>
</g>
<!-- src/shared/config/index.ts&#45;&gt;src/shared/config/env.ts -->
<g id="edge42" class="edge">
<title>src/shared/config/index.ts&#45;&gt;src/shared/config/env.ts</title>
<path fill="none" stroke="#000000" stroke-width="2" stroke-opacity="0.200000" d="M1034.07,-275C1054.09,-275 1081.72,-275 1103.28,-275"/>
<polygon fill="#000000" fill-opacity="0.200000" stroke="#000000" stroke-width="2" stroke-opacity="0.200000" points="1109.34,-277.1 1103.34,-275 1109.34,-272.9 1109.34,-277.1"/>
</g>
<!-- src/entities/bookmark/bookmark.model.ts&#45;&gt;src/shared/config/index.ts -->
<g id="edge10" class="edge">
<title>src/entities/bookmark/bookmark.model.ts&#45;&gt;src/shared/config/index.ts</title>
<path fill="none" stroke="#000000" stroke-width="2" stroke-opacity="0.200000" d="M893.03,-564.69C893.11,-529.26 897.31,-400.59 951.75,-316 958.64,-305.29 969.36,-296.3 979.42,-289.49"/>
<polygon fill="#000000" fill-opacity="0.200000" stroke="#000000" stroke-width="2" stroke-opacity="0.200000" points="980.43,-291.34 984.36,-286.35 978.17,-287.8 980.43,-291.34"/>
</g>
<!-- src/entities/bookmark/bookmark.model.ts&#45;&gt;src/entities/bookmark/bookmark.api.ts -->
<g id="edge9" class="edge">
<title>src/entities/bookmark/bookmark.model.ts&#45;&gt;src/entities/bookmark/bookmark.api.ts</title>
<path fill="none" stroke="#000000" stroke-width="2" stroke-opacity="0.200000" d="M939.21,-574C945.16,-574 951.27,-574 957.26,-574"/>
<polygon fill="#000000" fill-opacity="0.200000" stroke="#000000" stroke-width="2" stroke-opacity="0.200000" points="956.88,-576.1 962.88,-574 956.88,-571.9 956.88,-576.1"/>
</g>
<!-- src/entities/bookmark/bookmark.module.scss -->
<g id="node12" class="node">
<title>src/entities/bookmark/bookmark.module.scss</title>
<g id="a_node12"><a xlink:href="src/entities/bookmark/bookmark.module.scss" xlink:title="bookmark.module.scss">
<path fill="#ffffcc" stroke="black" d="M1055.33,-614.25C1055.33,-614.25 957.92,-614.25 957.92,-614.25 954.83,-614.25 951.75,-611.17 951.75,-608.08 951.75,-608.08 951.75,-601.92 951.75,-601.92 951.75,-598.83 954.83,-595.75 957.92,-595.75 957.92,-595.75 1055.33,-595.75 1055.33,-595.75 1058.42,-595.75 1061.5,-598.83 1061.5,-601.92 1061.5,-601.92 1061.5,-608.08 1061.5,-608.08 1061.5,-611.17 1058.42,-614.25 1055.33,-614.25"/>
<text text-anchor="start" x="959.75" y="-601.7" font-family="Helvetica,sans-Serif" font-size="9.00">bookmark.module.scss</text>
</a>
</g>
</g>
<!-- src/entities/bookmark/bookmark.ui.tsx&#45;&gt;src/entities/bookmark/bookmark.module.scss -->
<g id="edge11" class="edge">
<title>src/entities/bookmark/bookmark.ui.tsx&#45;&gt;src/entities/bookmark/bookmark.module.scss</title>
<path fill="none" stroke="#000000" stroke-width="2" stroke-opacity="0.200000" d="M932.47,-605C935.7,-605 939.02,-605 942.36,-605"/>
<polygon fill="#000000" fill-opacity="0.200000" stroke="#000000" stroke-width="2" stroke-opacity="0.200000" points="942.24,-607.1 948.24,-605 942.24,-602.9 942.24,-607.1"/>
</g>
<!-- src/shared/icons/index.ts -->
<g id="node14" class="node">
<title>src/shared/icons/index.ts</title>
<g id="a_node14"><a xlink:href="src/shared/icons/index.ts" xlink:title="index.ts">
<path fill="#ddfeff" stroke="black" d="M1027.46,-438.25C1027.46,-438.25 985.79,-438.25 985.79,-438.25 982.71,-438.25 979.62,-435.17 979.62,-432.08 979.62,-432.08 979.62,-425.92 979.62,-425.92 979.62,-422.83 982.71,-419.75 985.79,-419.75 985.79,-419.75 1027.46,-419.75 1027.46,-419.75 1030.54,-419.75 1033.62,-422.83 1033.62,-425.92 1033.62,-425.92 1033.62,-432.08 1033.62,-432.08 1033.62,-435.17 1030.54,-438.25 1027.46,-438.25"/>
<text text-anchor="start" x="990.88" y="-425.7" font-family="Helvetica,sans-Serif" font-size="9.00">index.ts</text>
</a>
</g>
</g>
<!-- src/entities/bookmark/bookmark.ui.tsx&#45;&gt;src/shared/icons/index.ts -->
<g id="edge12" class="edge">
<title>src/entities/bookmark/bookmark.ui.tsx&#45;&gt;src/shared/icons/index.ts</title>
<path fill="none" stroke="#000000" stroke-width="2" stroke-opacity="0.200000" d="M931.05,-595.46C933.92,-593.67 936.55,-591.53 938.75,-589 958.08,-566.76 941.46,-551.61 951.75,-524 962.53,-495.06 981.41,-464.48 993.71,-446.07"/>
<polygon fill="#000000" fill-opacity="0.200000" stroke="#000000" stroke-width="2" stroke-opacity="0.200000" points="995.35,-447.39 996.99,-441.25 991.88,-445.03 995.35,-447.39"/>
</g>
<!-- src/shared/lib/getFaviconUrl.ts -->
<g id="node15" class="node">
<title>src/shared/lib/getFaviconUrl.ts</title>
<g id="a_node15"><a xlink:href="src/shared/lib/getFaviconUrl.ts" xlink:title="getFaviconUrl.ts">
<path fill="#ddfeff" stroke="black" d="M1289.83,-177.25C1289.83,-177.25 1220.17,-177.25 1220.17,-177.25 1217.08,-177.25 1214,-174.17 1214,-171.08 1214,-171.08 1214,-164.92 1214,-164.92 1214,-161.83 1217.08,-158.75 1220.17,-158.75 1220.17,-158.75 1289.83,-158.75 1289.83,-158.75 1292.92,-158.75 1296,-161.83 1296,-164.92 1296,-164.92 1296,-171.08 1296,-171.08 1296,-174.17 1292.92,-177.25 1289.83,-177.25"/>
<text text-anchor="start" x="1222" y="-164.7" font-family="Helvetica,sans-Serif" font-size="9.00">getFaviconUrl.ts</text>
</a>
</g>
</g>
<!-- src/entities/bookmark/bookmark.ui.tsx&#45;&gt;src/shared/lib/getFaviconUrl.ts -->
<g id="edge13" class="edge">
<title>src/entities/bookmark/bookmark.ui.tsx&#45;&gt;src/shared/lib/getFaviconUrl.ts</title>
<path fill="none" stroke="#000000" stroke-width="2" stroke-opacity="0.200000" d="M929.61,-595.43C932.92,-593.64 936.05,-591.52 938.75,-589 949.39,-579.1 940.64,-568.37 951.75,-559 1037.87,-486.39 1127.29,-586.69 1198,-499 1219.98,-471.75 1185.17,-212.14 1206,-184 1206.33,-183.56 1206.67,-183.13 1207.02,-182.71"/>
<polygon fill="#000000" fill-opacity="0.200000" stroke="#000000" stroke-width="2" stroke-opacity="0.200000" points="1208.22,-184.45 1211.34,-178.92 1205.45,-181.3 1208.22,-184.45"/>
</g>
<!-- src/shared/icons/AddBookmarkIcon.tsx -->
<g id="node37" class="node">
<title>src/shared/icons/AddBookmarkIcon.tsx</title>
<g id="a_node37"><a xlink:href="src/shared/icons/AddBookmarkIcon.tsx" xlink:title="AddBookmarkIcon.tsx">
<path fill="#bbfeff" stroke="black" d="M1183.83,-407.25C1183.83,-407.25 1091.67,-407.25 1091.67,-407.25 1088.58,-407.25 1085.5,-404.17 1085.5,-401.08 1085.5,-401.08 1085.5,-394.92 1085.5,-394.92 1085.5,-391.83 1088.58,-388.75 1091.67,-388.75 1091.67,-388.75 1183.83,-388.75 1183.83,-388.75 1186.92,-388.75 1190,-391.83 1190,-394.92 1190,-394.92 1190,-401.08 1190,-401.08 1190,-404.17 1186.92,-407.25 1183.83,-407.25"/>
<text text-anchor="start" x="1093.5" y="-394.7" font-family="Helvetica,sans-Serif" font-size="9.00">AddBookmarkIcon.tsx</text>
</a>
</g>
</g>
<!-- src/shared/icons/index.ts&#45;&gt;src/shared/icons/AddBookmarkIcon.tsx -->
<g id="edge43" class="edge">
<title>src/shared/icons/index.ts&#45;&gt;src/shared/icons/AddBookmarkIcon.tsx</title>
<path fill="none" stroke="#000000" stroke-width="2" stroke-opacity="0.200000" d="M1034.07,-422.65C1050.04,-418.82 1070.85,-413.82 1089.56,-409.33"/>
<polygon fill="#000000" fill-opacity="0.200000" stroke="#000000" stroke-width="2" stroke-opacity="0.200000" points="1095.87,-409.97 1089.54,-409.33 1094.89,-405.89 1095.87,-409.97"/>
</g>
<!-- src/shared/icons/AddFolderIcon.tsx -->
<g id="node38" class="node">
<title>src/shared/icons/AddFolderIcon.tsx</title>
<g id="a_node38"><a xlink:href="src/shared/icons/AddFolderIcon.tsx" xlink:title="AddFolderIcon.tsx">
<path fill="#bbfeff" stroke="black" d="M1176.33,-438.25C1176.33,-438.25 1099.17,-438.25 1099.17,-438.25 1096.08,-438.25 1093,-435.17 1093,-432.08 1093,-432.08 1093,-425.92 1093,-425.92 1093,-422.83 1096.08,-419.75 1099.17,-419.75 1099.17,-419.75 1176.33,-419.75 1176.33,-419.75 1179.42,-419.75 1182.5,-422.83 1182.5,-425.92 1182.5,-425.92 1182.5,-432.08 1182.5,-432.08 1182.5,-435.17 1179.42,-438.25 1176.33,-438.25"/>
<text text-anchor="start" x="1101" y="-425.7" font-family="Helvetica,sans-Serif" font-size="9.00">AddFolderIcon.tsx</text>
</a>
</g>
</g>
<!-- src/shared/icons/index.ts&#45;&gt;src/shared/icons/AddFolderIcon.tsx -->
<g id="edge44" class="edge">
<title>src/shared/icons/index.ts&#45;&gt;src/shared/icons/AddFolderIcon.tsx</title>
<path fill="none" stroke="#000000" stroke-width="2" stroke-opacity="0.200000" d="M1034.07,-429C1048.92,-429 1067.96,-429 1085.61,-429"/>
<polygon fill="#000000" fill-opacity="0.200000" stroke="#000000" stroke-width="2" stroke-opacity="0.200000" points="1091.55,-431.1 1085.55,-429 1091.55,-426.9 1091.55,-431.1"/>
</g>
<!-- src/shared/icons/DeleteSquareIcon.tsx -->
<g id="node39" class="node">
<title>src/shared/icons/DeleteSquareIcon.tsx</title>
<g id="a_node39"><a xlink:href="src/shared/icons/DeleteSquareIcon.tsx" xlink:title="DeleteSquareIcon.tsx">
<path fill="#bbfeff" stroke="black" d="M1183.46,-469.25C1183.46,-469.25 1092.04,-469.25 1092.04,-469.25 1088.96,-469.25 1085.88,-466.17 1085.88,-463.08 1085.88,-463.08 1085.88,-456.92 1085.88,-456.92 1085.88,-453.83 1088.96,-450.75 1092.04,-450.75 1092.04,-450.75 1183.46,-450.75 1183.46,-450.75 1186.54,-450.75 1189.62,-453.83 1189.62,-456.92 1189.62,-456.92 1189.62,-463.08 1189.62,-463.08 1189.62,-466.17 1186.54,-469.25 1183.46,-469.25"/>
<text text-anchor="start" x="1093.88" y="-456.7" font-family="Helvetica,sans-Serif" font-size="9.00">DeleteSquareIcon.tsx</text>
</a>
</g>
</g>
<!-- src/shared/icons/index.ts&#45;&gt;src/shared/icons/DeleteSquareIcon.tsx -->
<g id="edge45" class="edge">
<title>src/shared/icons/index.ts&#45;&gt;src/shared/icons/DeleteSquareIcon.tsx</title>
<path fill="none" stroke="#000000" stroke-width="2" stroke-opacity="0.200000" d="M1034.07,-435.35C1050.04,-439.18 1070.85,-444.18 1089.56,-448.67"/>
<polygon fill="#000000" fill-opacity="0.200000" stroke="#000000" stroke-width="2" stroke-opacity="0.200000" points="1094.89,-452.11 1089.54,-448.67 1095.87,-448.03 1094.89,-452.11"/>
</g>
<!-- src/shared/icons/EditIcon.tsx -->
<g id="node40" class="node">
<title>src/shared/icons/EditIcon.tsx</title>
<g id="a_node40"><a xlink:href="src/shared/icons/EditIcon.tsx" xlink:title="EditIcon.tsx">
<path fill="#bbfeff" stroke="black" d="M1162.83,-345.25C1162.83,-345.25 1112.67,-345.25 1112.67,-345.25 1109.58,-345.25 1106.5,-342.17 1106.5,-339.08 1106.5,-339.08 1106.5,-332.92 1106.5,-332.92 1106.5,-329.83 1109.58,-326.75 1112.67,-326.75 1112.67,-326.75 1162.83,-326.75 1162.83,-326.75 1165.92,-326.75 1169,-329.83 1169,-332.92 1169,-332.92 1169,-339.08 1169,-339.08 1169,-342.17 1165.92,-345.25 1162.83,-345.25"/>
<text text-anchor="start" x="1114.5" y="-332.7" font-family="Helvetica,sans-Serif" font-size="9.00">EditIcon.tsx</text>
</a>
</g>
</g>
<!-- src/shared/icons/index.ts&#45;&gt;src/shared/icons/EditIcon.tsx -->
<g id="edge46" class="edge">
<title>src/shared/icons/index.ts&#45;&gt;src/shared/icons/EditIcon.tsx</title>
<path fill="none" stroke="#000000" stroke-width="2" stroke-opacity="0.200000" d="M1014.7,-419.49C1027.23,-403.31 1054.86,-370.41 1085.5,-352 1089.84,-349.39 1094.64,-347.17 1099.52,-345.29"/>
<polygon fill="#000000" fill-opacity="0.200000" stroke="#000000" stroke-width="2" stroke-opacity="0.200000" points="1105.94,-345.24 1099.58,-345.27 1104.54,-341.28 1105.94,-345.24"/>
</g>
<!-- src/shared/icons/FolderIcon.tsx -->
<g id="node41" class="node">
<title>src/shared/icons/FolderIcon.tsx</title>
<g id="a_node41"><a xlink:href="src/shared/icons/FolderIcon.tsx" xlink:title="FolderIcon.tsx">
<path fill="#bbfeff" stroke="black" d="M1168.08,-376.25C1168.08,-376.25 1107.42,-376.25 1107.42,-376.25 1104.33,-376.25 1101.25,-373.17 1101.25,-370.08 1101.25,-370.08 1101.25,-363.92 1101.25,-363.92 1101.25,-360.83 1104.33,-357.75 1107.42,-357.75 1107.42,-357.75 1168.08,-357.75 1168.08,-357.75 1171.17,-357.75 1174.25,-360.83 1174.25,-363.92 1174.25,-363.92 1174.25,-370.08 1174.25,-370.08 1174.25,-373.17 1171.17,-376.25 1168.08,-376.25"/>
<text text-anchor="start" x="1109.25" y="-363.7" font-family="Helvetica,sans-Serif" font-size="9.00">FolderIcon.tsx</text>
</a>
</g>
</g>
<!-- src/shared/icons/index.ts&#45;&gt;src/shared/icons/FolderIcon.tsx -->
<g id="edge47" class="edge">
<title>src/shared/icons/index.ts&#45;&gt;src/shared/icons/FolderIcon.tsx</title>
<path fill="none" stroke="#000000" stroke-width="2" stroke-opacity="0.200000" d="M1021.73,-419.31C1036.93,-409.2 1062.11,-393.39 1085.5,-383 1088.67,-381.59 1091.99,-380.26 1095.37,-379"/>
<polygon fill="#000000" fill-opacity="0.200000" stroke="#000000" stroke-width="2" stroke-opacity="0.200000" points="1101.65,-379 1095.29,-379.03 1100.24,-375.04 1101.65,-379"/>
</g>
<!-- src/entities/tab/index.ts -->
<g id="node16" class="node">
<title>src/entities/tab/index.ts</title>
<g id="a_node16"><a xlink:href="src/entities/tab/index.ts" xlink:title="index.ts">
<path fill="#ddfeff" stroke="black" d="M781.33,-689.25C781.33,-689.25 739.67,-689.25 739.67,-689.25 736.58,-689.25 733.5,-686.17 733.5,-683.08 733.5,-683.08 733.5,-676.92 733.5,-676.92 733.5,-673.83 736.58,-670.75 739.67,-670.75 739.67,-670.75 781.33,-670.75 781.33,-670.75 784.42,-670.75 787.5,-673.83 787.5,-676.92 787.5,-676.92 787.5,-683.08 787.5,-683.08 787.5,-686.17 784.42,-689.25 781.33,-689.25"/>
<text text-anchor="start" x="744.75" y="-676.7" font-family="Helvetica,sans-Serif" font-size="9.00">index.ts</text>
</a>
</g>
</g>
<!-- src/entities/tab/tab.lib.ts -->
<g id="node17" class="node">
<title>src/entities/tab/tab.lib.ts</title>
<g id="a_node17"><a xlink:href="src/entities/tab/tab.lib.ts" xlink:title="tab.lib.ts">
<path fill="#ddfeff" stroke="black" d="M912.96,-689.25C912.96,-689.25 871.29,-689.25 871.29,-689.25 868.21,-689.25 865.12,-686.17 865.12,-683.08 865.12,-683.08 865.12,-676.92 865.12,-676.92 865.12,-673.83 868.21,-670.75 871.29,-670.75 871.29,-670.75 912.96,-670.75 912.96,-670.75 916.04,-670.75 919.12,-673.83 919.12,-676.92 919.12,-676.92 919.12,-683.08 919.12,-683.08 919.12,-686.17 916.04,-689.25 912.96,-689.25"/>
<text text-anchor="start" x="875.25" y="-676.7" font-family="Helvetica,sans-Serif" font-size="9.00">tab.lib.ts</text>
</a>
</g>
</g>
<!-- src/entities/tab/index.ts&#45;&gt;src/entities/tab/tab.lib.ts -->
<g id="edge17" class="edge">
<title>src/entities/tab/index.ts&#45;&gt;src/entities/tab/tab.lib.ts</title>
<path fill="none" stroke="#000000" stroke-width="2" stroke-opacity="0.200000" d="M787.73,-680C807.94,-680 836.01,-680 857.8,-680"/>
<polygon fill="#000000" fill-opacity="0.200000" stroke="#000000" stroke-width="2" stroke-opacity="0.200000" points="863.93,-682.1 857.93,-680 863.93,-677.9 863.93,-682.1"/>
</g>
<!-- src/features/bookmark/create/bookmark&#45;create.lib.ts -->
<g id="node18" class="node">
<title>src/features/bookmark/create/bookmark&#45;create.lib.ts</title>
<g id="a_node18"><a xlink:href="src/features/bookmark/create/bookmark-create.lib.ts" xlink:title="bookmark&#45;create.lib.ts">
<path fill="#ddfeff" stroke="black" d="M685.33,-232.25C685.33,-232.25 591.67,-232.25 591.67,-232.25 588.58,-232.25 585.5,-229.17 585.5,-226.08 585.5,-226.08 585.5,-219.92 585.5,-219.92 585.5,-216.83 588.58,-213.75 591.67,-213.75 591.67,-213.75 685.33,-213.75 685.33,-213.75 688.42,-213.75 691.5,-216.83 691.5,-219.92 691.5,-219.92 691.5,-226.08 691.5,-226.08 691.5,-229.17 688.42,-232.25 685.33,-232.25"/>
<text text-anchor="start" x="593.5" y="-219.7" font-family="Helvetica,sans-Serif" font-size="9.00">bookmark&#45;create.lib.ts</text>
</a>
</g>
</g>
<!-- src/features/bookmark/create/bookmark&#45;create.lib.ts&#45;&gt;src/entities/bookmark/index.ts -->
<g id="edge18" class="edge">
<title>src/features/bookmark/create/bookmark&#45;create.lib.ts&#45;&gt;src/entities/bookmark/index.ts</title>
<path fill="none" stroke="#000000" stroke-width="2" stroke-opacity="0.200000" d="M642.71,-232.6C658.94,-281.17 732.08,-499.98 753.56,-564.22"/>
<polygon fill="#000000" fill-opacity="0.200000" stroke="#000000" stroke-width="2" stroke-opacity="0.200000" points="751.48,-564.64 755.38,-569.66 755.47,-563.31 751.48,-564.64"/>
</g>
<!-- src/features/bookmark/create/bookmark&#45;create.ui.tsx&#45;&gt;src/features/bookmark/create/bookmark&#45;create.lib.ts -->
<g id="edge19" class="edge">
<title>src/features/bookmark/create/bookmark&#45;create.ui.tsx&#45;&gt;src/features/bookmark/create/bookmark&#45;create.lib.ts</title>
<path fill="none" stroke="#000000" stroke-width="2" stroke-opacity="0.200000" d="M571.53,-223C573.25,-223 574.98,-223 576.71,-223"/>
<polygon fill="#000000" fill-opacity="0.200000" stroke="#000000" stroke-width="2" stroke-opacity="0.200000" points="576.32,-225.1 582.32,-223 576.32,-220.9 576.32,-225.1"/>
</g>
<!-- src/shared/shared&#45;values/index.ts -->
<g id="node20" class="node">
<title>src/shared/shared&#45;values/index.ts</title>
<g id="a_node20"><a xlink:href="src/shared/shared-values/index.ts" xlink:title="index.ts">
<path fill="#ddfeff" stroke="black" d="M1027.46,-223.25C1027.46,-223.25 985.79,-223.25 985.79,-223.25 982.71,-223.25 979.62,-220.17 979.62,-217.08 979.62,-217.08 979.62,-210.92 979.62,-210.92 979.62,-207.83 982.71,-204.75 985.79,-204.75 985.79,-204.75 1027.46,-204.75 1027.46,-204.75 1030.54,-204.75 1033.62,-207.83 1033.62,-210.92 1033.62,-210.92 1033.62,-217.08 1033.62,-217.08 1033.62,-220.17 1030.54,-223.25 1027.46,-223.25"/>
<text text-anchor="start" x="990.88" y="-210.7" font-family="Helvetica,sans-Serif" font-size="9.00">index.ts</text>
</a>
</g>
</g>
<!-- src/features/bookmark/create/bookmark&#45;create.ui.tsx&#45;&gt;src/shared/shared&#45;values/index.ts -->
<g id="edge20" class="edge">
<title>src/features/bookmark/create/bookmark&#45;create.ui.tsx&#45;&gt;src/shared/shared&#45;values/index.ts</title>
<path fill="none" stroke="#000000" stroke-width="2" stroke-opacity="0.200000" d="M562.31,-213.35C568.2,-210.3 573.55,-206.29 577.5,-201 593.49,-179.58 566.92,-100.21 585.5,-81 666.25,2.47 729.51,-60.78 845.5,-55 886.89,-52.94 908.09,-27.11 938.75,-55 961.37,-75.58 933.52,-167.45 951.75,-192 956.57,-198.49 963.65,-203.08 971.09,-206.31"/>
<polygon fill="#000000" fill-opacity="0.200000" stroke="#000000" stroke-width="2" stroke-opacity="0.200000" points="970.03,-208.16 976.39,-208.26 971.49,-204.22 970.03,-208.16"/>
</g>
<!-- src/features/bookmark/delete/bookmark&#45;delete.lib.ts -->
<g id="node21" class="node">
<title>src/features/bookmark/delete/bookmark&#45;delete.lib.ts</title>
<g id="a_node21"><a xlink:href="src/features/bookmark/delete/bookmark-delete.lib.ts" xlink:title="bookmark&#45;delete.lib.ts">
<path fill="#ddfeff" stroke="black" d="M807.33,-110.25C807.33,-110.25 713.67,-110.25 713.67,-110.25 710.58,-110.25 707.5,-107.17 707.5,-104.08 707.5,-104.08 707.5,-97.92 707.5,-97.92 707.5,-94.83 710.58,-91.75 713.67,-91.75 713.67,-91.75 807.33,-91.75 807.33,-91.75 810.42,-91.75 813.5,-94.83 813.5,-97.92 813.5,-97.92 813.5,-104.08 813.5,-104.08 813.5,-107.17 810.42,-110.25 807.33,-110.25"/>
<text text-anchor="start" x="715.5" y="-97.7" font-family="Helvetica,sans-Serif" font-size="9.00">bookmark&#45;delete.lib.ts</text>
</a>
</g>
</g>
<!-- src/features/bookmark/delete/bookmark&#45;delete.lib.ts&#45;&gt;src/entities/bookmark/index.ts -->
<g id="edge22" class="edge">
<title>src/features/bookmark/delete/bookmark&#45;delete.lib.ts&#45;&gt;src/entities/bookmark/index.ts</title>
<path fill="none" stroke="#000000" stroke-width="2" stroke-opacity="0.200000" d="M760.5,-110.39C760.5,-261.37 760.5,-412.34 760.5,-563.31"/>
<polygon fill="#000000" fill-opacity="0.200000" stroke="#000000" stroke-width="2" stroke-opacity="0.200000" points="758.4,-563.3 760.5,-569.3 762.6,-563.3 758.4,-563.3"/>
</g>
<!-- src/features/bookmark/delete/index.ts -->
<g id="node22" class="node">
<title>src/features/bookmark/delete/index.ts</title>
<g id="a_node22"><a xlink:href="src/features/bookmark/delete/index.ts" xlink:title="index.ts">
<path fill="#ddfeff" stroke="black" d="M659.33,-110.25C659.33,-110.25 617.67,-110.25 617.67,-110.25 614.58,-110.25 611.5,-107.17 611.5,-104.08 611.5,-104.08 611.5,-97.92 611.5,-97.92 611.5,-94.83 614.58,-91.75 617.67,-91.75 617.67,-91.75 659.33,-91.75 659.33,-91.75 662.42,-91.75 665.5,-94.83 665.5,-97.92 665.5,-97.92 665.5,-104.08 665.5,-104.08 665.5,-107.17 662.42,-110.25 659.33,-110.25"/>
<text text-anchor="start" x="622.75" y="-97.7" font-family="Helvetica,sans-Serif" font-size="9.00">index.ts</text>
</a>
</g>
</g>
<!-- src/features/bookmark/delete/index.ts&#45;&gt;src/features/bookmark/delete/bookmark&#45;delete.lib.ts -->
<g id="edge23" class="edge">
<title>src/features/bookmark/delete/index.ts&#45;&gt;src/features/bookmark/delete/bookmark&#45;delete.lib.ts</title>
<path fill="none" stroke="#000000" stroke-width="2" stroke-opacity="0.200000" d="M665.83,-101C675.98,-101 688.04,-101 700.06,-101"/>
<polygon fill="#000000" fill-opacity="0.200000" stroke="#000000" stroke-width="2" stroke-opacity="0.200000" points="706.12,-103.1 700.12,-101 706.12,-98.9 706.12,-103.1"/>
</g>
<!-- src/features/bookmark/edit/bookmark&#45;edit.lib.ts -->
<g id="node23" class="node">
<title>src/features/bookmark/edit/bookmark&#45;edit.lib.ts</title>
<g id="a_node23"><a xlink:href="src/features/bookmark/edit/bookmark-edit.lib.ts" xlink:title="bookmark&#45;edit.lib.ts">
<path fill="#ddfeff" stroke="black" d="M680.08,-171.25C680.08,-171.25 596.92,-171.25 596.92,-171.25 593.83,-171.25 590.75,-168.17 590.75,-165.08 590.75,-165.08 590.75,-158.92 590.75,-158.92 590.75,-155.83 593.83,-152.75 596.92,-152.75 596.92,-152.75 680.08,-152.75 680.08,-152.75 683.17,-152.75 686.25,-155.83 686.25,-158.92 686.25,-158.92 686.25,-165.08 686.25,-165.08 686.25,-168.17 683.17,-171.25 680.08,-171.25"/>
<text text-anchor="start" x="598.75" y="-158.7" font-family="Helvetica,sans-Serif" font-size="9.00">bookmark&#45;edit.lib.ts</text>
</a>
</g>
</g>
<!-- src/features/bookmark/edit/bookmark&#45;edit.lib.ts&#45;&gt;src/entities/bookmark/index.ts -->
<g id="edge24" class="edge">
<title>src/features/bookmark/edit/bookmark&#45;edit.lib.ts&#45;&gt;src/entities/bookmark/index.ts</title>
<path fill="none" stroke="#000000" stroke-width="2" stroke-opacity="0.200000" d="M661.83,-171.63C674.92,-178.47 690.59,-188.93 699.5,-203 738.38,-264.44 754.58,-496.62 758.51,-563.73"/>
<polygon fill="#000000" fill-opacity="0.200000" stroke="#000000" stroke-width="2" stroke-opacity="0.200000" points="756.39,-563.5 758.83,-569.37 760.58,-563.26 756.39,-563.5"/>
</g>
<!-- src/features/bookmark/edit/bookmark&#45;edit.ui.tsx&#45;&gt;src/shared/shared&#45;values/index.ts -->
<g id="edge27" class="edge">
<title>src/features/bookmark/edit/bookmark&#45;edit.ui.tsx&#45;&gt;src/shared/shared&#45;values/index.ts</title>
<path fill="none" stroke="#000000" stroke-width="2" stroke-opacity="0.200000" d="M519.82,-152.46C524.75,-127.85 541.67,-62.27 585.5,-36 602.33,-25.91 924.43,-25.58 938.75,-39 963.65,-62.33 931.54,-164.51 951.75,-192 956.54,-198.52 963.6,-203.11 971.05,-206.34"/>
<polygon fill="#000000" fill-opacity="0.200000" stroke="#000000" stroke-width="2" stroke-opacity="0.200000" points="969.99,-208.19 976.35,-208.3 971.44,-204.25 969.99,-208.19"/>
</g>
<!-- src/features/bookmark/edit/bookmark&#45;edit.ui.tsx&#45;&gt;src/features/bookmark/delete/index.ts -->
<g id="edge26" class="edge">
<title>src/features/bookmark/edit/bookmark&#45;edit.ui.tsx&#45;&gt;src/features/bookmark/delete/index.ts</title>
<path fill="none" stroke="#000000" stroke-width="2" stroke-opacity="0.200000" d="M537.04,-152.33C556.95,-142.16 588.45,-126.07 610.86,-114.61"/>
<polygon fill="#000000" fill-opacity="0.200000" stroke="#000000" stroke-width="2" stroke-opacity="0.200000" points="611.59,-116.6 615.98,-112 609.68,-112.86 611.59,-116.6"/>
</g>
<!-- src/features/bookmark/edit/bookmark&#45;edit.ui.tsx&#45;&gt;src/features/bookmark/edit/bookmark&#45;edit.lib.ts -->
<g id="edge25" class="edge">
<title>src/features/bookmark/edit/bookmark&#45;edit.ui.tsx&#45;&gt;src/features/bookmark/edit/bookmark&#45;edit.lib.ts</title>
<path fill="none" stroke="#000000" stroke-width="2" stroke-opacity="0.200000" d="M566.34,-162C571.27,-162 576.31,-162 581.32,-162"/>
<polygon fill="#000000" fill-opacity="0.200000" stroke="#000000" stroke-width="2" stroke-opacity="0.200000" points="581.25,-164.1 587.25,-162 581.25,-159.9 581.25,-164.1"/>
</g>
<!-- src/features/folder/create/folder&#45;create.lib.ts -->
<g id="node25" class="node">
<title>src/features/folder/create/folder&#45;create.lib.ts</title>
<g id="a_node25"><a xlink:href="src/features/folder/create/folder-create.lib.ts" xlink:title="folder&#45;create.lib.ts">
<path fill="#ddfeff" stroke="black" d="M555.33,-450.25C555.33,-450.25 478.92,-450.25 478.92,-450.25 475.83,-450.25 472.75,-447.17 472.75,-444.08 472.75,-444.08 472.75,-437.92 472.75,-437.92 472.75,-434.83 475.83,-431.75 478.92,-431.75 478.92,-431.75 555.33,-431.75 555.33,-431.75 558.42,-431.75 561.5,-434.83 561.5,-437.92 561.5,-437.92 561.5,-444.08 561.5,-444.08 561.5,-447.17 558.42,-450.25 555.33,-450.25"/>
<text text-anchor="start" x="480.75" y="-437.7" font-family="Helvetica,sans-Serif" font-size="9.00">folder&#45;create.lib.ts</text>
</a>
</g>
</g>
<!-- src/features/folder/create/folder&#45;create.lib.ts&#45;&gt;src/entities/bookmark/index.ts -->
<g id="edge29" class="edge">
<title>src/features/folder/create/folder&#45;create.lib.ts&#45;&gt;src/entities/bookmark/index.ts</title>
<path fill="none" stroke="#000000" stroke-width="2" stroke-opacity="0.200000" d="M523.09,-450.52C533.34,-470.19 557.55,-516.74 577.5,-556 581.1,-563.09 578.86,-567.63 585.5,-572 607.5,-586.49 680.06,-585.89 724.23,-584.03"/>
<polygon fill="#000000" fill-opacity="0.200000" stroke="#000000" stroke-width="2" stroke-opacity="0.200000" points="724.28,-586.13 730.18,-583.76 724.09,-581.94 724.28,-586.13"/>
</g>
<!-- src/features/folder/create/index.ts -->
<g id="node26" class="node">
<title>src/features/folder/create/index.ts</title>
<g id="a_node26"><a xlink:href="src/features/folder/create/index.ts" xlink:title="index.ts">
<path fill="#ddfeff" stroke="black" d="M421.21,-450.25C421.21,-450.25 379.54,-450.25 379.54,-450.25 376.46,-450.25 373.38,-447.17 373.38,-444.08 373.38,-444.08 373.38,-437.92 373.38,-437.92 373.38,-434.83 376.46,-431.75 379.54,-431.75 379.54,-431.75 421.21,-431.75 421.21,-431.75 424.29,-431.75 427.38,-434.83 427.38,-437.92 427.38,-437.92 427.38,-444.08 427.38,-444.08 427.38,-447.17 424.29,-450.25 421.21,-450.25"/>
<text text-anchor="start" x="384.62" y="-437.7" font-family="Helvetica,sans-Serif" font-size="9.00">index.ts</text>
</a>
</g>
</g>
<!-- src/features/folder/create/index.ts&#45;&gt;src/features/folder/create/folder&#45;create.lib.ts -->
<g id="edge30" class="edge">
<title>src/features/folder/create/index.ts&#45;&gt;src/features/folder/create/folder&#45;create.lib.ts</title>
<path fill="none" stroke="#000000" stroke-width="2" stroke-opacity="0.200000" d="M427.7,-441C438.87,-441 452.28,-441 465.24,-441"/>
<polygon fill="#000000" fill-opacity="0.200000" stroke="#000000" stroke-width="2" stroke-opacity="0.200000" points="471.38,-443.1 465.38,-441 471.38,-438.9 471.38,-443.1"/>
</g>
<!-- src/features/folder/delete/folder&#45;delete.lib.ts -->
<g id="node27" class="node">
<title>src/features/folder/delete/folder&#45;delete.lib.ts</title>
<g id="a_node27"><a xlink:href="src/features/folder/delete/folder-delete.lib.ts" xlink:title="folder&#45;delete.lib.ts">
<path fill="#ddfeff" stroke="black" d="M555.33,-328.25C555.33,-328.25 478.92,-328.25 478.92,-328.25 475.83,-328.25 472.75,-325.17 472.75,-322.08 472.75,-322.08 472.75,-315.92 472.75,-315.92 472.75,-312.83 475.83,-309.75 478.92,-309.75 478.92,-309.75 555.33,-309.75 555.33,-309.75 558.42,-309.75 561.5,-312.83 561.5,-315.92 561.5,-315.92 561.5,-322.08 561.5,-322.08 561.5,-325.17 558.42,-328.25 555.33,-328.25"/>
<text text-anchor="start" x="480.75" y="-315.7" font-family="Helvetica,sans-Serif" font-size="9.00">folder&#45;delete.lib.ts</text>
</a>
</g>
</g>
<!-- src/features/folder/delete/folder&#45;delete.lib.ts&#45;&gt;src/entities/bookmark/index.ts -->
<g id="edge31" class="edge">
<title>src/features/folder/delete/folder&#45;delete.lib.ts&#45;&gt;src/entities/bookmark/index.ts</title>
<path fill="none" stroke="#000000" stroke-width="2" stroke-opacity="0.200000" d="M534.66,-328.66C547.1,-336.34 564.23,-347.78 577.5,-360 651.09,-427.76 721.17,-525.74 748,-564.9"/>
<polygon fill="#000000" fill-opacity="0.200000" stroke="#000000" stroke-width="2" stroke-opacity="0.200000" points="746.24,-566.04 751.35,-569.82 749.71,-563.68 746.24,-566.04"/>
</g>
<!-- src/features/folder/delete/index.ts -->
<g id="node28" class="node">
<title>src/features/folder/delete/index.ts</title>
<g id="a_node28"><a xlink:href="src/features/folder/delete/index.ts" xlink:title="index.ts">
<path fill="#ddfeff" stroke="black" d="M421.21,-328.25C421.21,-328.25 379.54,-328.25 379.54,-328.25 376.46,-328.25 373.38,-325.17 373.38,-322.08 373.38,-322.08 373.38,-315.92 373.38,-315.92 373.38,-312.83 376.46,-309.75 379.54,-309.75 379.54,-309.75 421.21,-309.75 421.21,-309.75 424.29,-309.75 427.38,-312.83 427.38,-315.92 427.38,-315.92 427.38,-322.08 427.38,-322.08 427.38,-325.17 424.29,-328.25 421.21,-328.25"/>
<text text-anchor="start" x="384.62" y="-315.7" font-family="Helvetica,sans-Serif" font-size="9.00">index.ts</text>
</a>
</g>
</g>
<!-- src/features/folder/delete/index.ts&#45;&gt;src/features/folder/delete/folder&#45;delete.lib.ts -->
<g id="edge32" class="edge">
<title>src/features/folder/delete/index.ts&#45;&gt;src/features/folder/delete/folder&#45;delete.lib.ts</title>
<path fill="none" stroke="#000000" stroke-width="2" stroke-opacity="0.200000" d="M427.7,-319C438.87,-319 452.28,-319 465.24,-319"/>
<polygon fill="#000000" fill-opacity="0.200000" stroke="#000000" stroke-width="2" stroke-opacity="0.200000" points="471.38,-321.1 465.38,-319 471.38,-316.9 471.38,-321.1"/>
</g>
<!-- src/features/folder/edit/folder&#45;edit.lib.ts -->
<g id="node29" class="node">
<title>src/features/folder/edit/folder&#45;edit.lib.ts</title>
<g id="a_node29"><a xlink:href="src/features/folder/edit/folder-edit.lib.ts" xlink:title="folder&#45;edit.lib.ts">
<path fill="#ddfeff" stroke="black" d="M550.08,-389.25C550.08,-389.25 484.17,-389.25 484.17,-389.25 481.08,-389.25 478,-386.17 478,-383.08 478,-383.08 478,-376.92 478,-376.92 478,-373.83 481.08,-370.75 484.17,-370.75 484.17,-370.75 550.08,-370.75 550.08,-370.75 553.17,-370.75 556.25,-373.83 556.25,-376.92 556.25,-376.92 556.25,-383.08 556.25,-383.08 556.25,-386.17 553.17,-389.25 550.08,-389.25"/>
<text text-anchor="start" x="486" y="-376.7" font-family="Helvetica,sans-Serif" font-size="9.00">folder&#45;edit.lib.ts</text>
</a>
</g>
</g>
<!-- src/features/folder/edit/folder&#45;edit.lib.ts&#45;&gt;src/entities/bookmark/index.ts -->
<g id="edge33" class="edge">
<title>src/features/folder/edit/folder&#45;edit.lib.ts&#45;&gt;src/entities/bookmark/index.ts</title>
<path fill="none" stroke="#000000" stroke-width="2" stroke-opacity="0.200000" d="M541.31,-389.7C554.33,-396.46 569.52,-406.81 577.5,-421 584.98,-434.29 575.12,-546.83 585.5,-558 602.9,-576.71 674.2,-569.44 699.5,-573 707.53,-574.13 716.16,-575.4 724.3,-576.61"/>
<polygon fill="#000000" fill-opacity="0.200000" stroke="#000000" stroke-width="2" stroke-opacity="0.200000" points="723.99,-578.69 730.24,-577.5 724.61,-574.54 723.99,-578.69"/>
</g>
<!-- src/features/folder/edit/index.ts -->
<g id="node30" class="node">
<title>src/features/folder/edit/index.ts</title>
<g id="a_node30"><a xlink:href="src/features/folder/edit/index.ts" xlink:title="index.ts">
<path fill="#ddfeff" stroke="black" d="M421.21,-389.25C421.21,-389.25 379.54,-389.25 379.54,-389.25 376.46,-389.25 373.38,-386.17 373.38,-383.08 373.38,-383.08 373.38,-376.92 373.38,-376.92 373.38,-373.83 376.46,-370.75 379.54,-370.75 379.54,-370.75 421.21,-370.75 421.21,-370.75 424.29,-370.75 427.38,-373.83 427.38,-376.92 427.38,-376.92 427.38,-383.08 427.38,-383.08 427.38,-386.17 424.29,-389.25 421.21,-389.25"/>
<text text-anchor="start" x="384.62" y="-376.7" font-family="Helvetica,sans-Serif" font-size="9.00">index.ts</text>
</a>
</g>
</g>
<!-- src/features/folder/edit/index.ts&#45;&gt;src/features/folder/edit/folder&#45;edit.lib.ts -->
<g id="edge34" class="edge">
<title>src/features/folder/edit/index.ts&#45;&gt;src/features/folder/edit/folder&#45;edit.lib.ts</title>
<path fill="none" stroke="#000000" stroke-width="2" stroke-opacity="0.200000" d="M427.7,-380C440.44,-380 456.1,-380 470.68,-380"/>
<polygon fill="#000000" fill-opacity="0.200000" stroke="#000000" stroke-width="2" stroke-opacity="0.200000" points="476.74,-382.1 470.74,-380 476.74,-377.9 476.74,-382.1"/>
</g>
<!-- src/shared/lib/delay.ts -->
<g id="node32" class="node">
<title>src/shared/lib/delay.ts</title>
<g id="a_node32"><a xlink:href="src/shared/lib/delay.ts" xlink:title="delay.ts">
<path fill="#ddfeff" stroke="black" d="M1275.83,-146.25C1275.83,-146.25 1234.17,-146.25 1234.17,-146.25 1231.08,-146.25 1228,-143.17 1228,-140.08 1228,-140.08 1228,-133.92 1228,-133.92 1228,-130.83 1231.08,-127.75 1234.17,-127.75 1234.17,-127.75 1275.83,-127.75 1275.83,-127.75 1278.92,-127.75 1282,-130.83 1282,-133.92 1282,-133.92 1282,-140.08 1282,-140.08 1282,-143.17 1278.92,-146.25 1275.83,-146.25"/>
<text text-anchor="start" x="1239.62" y="-133.7" font-family="Helvetica,sans-Serif" font-size="9.00">delay.ts</text>
</a>
</g>
</g>
<!-- src/shared/chrome&#45;api&#45;mock/bookmark.mock.ts&#45;&gt;src/shared/lib/delay.ts -->
<g id="edge35" class="edge">
<title>src/shared/chrome&#45;api&#45;mock/bookmark.mock.ts&#45;&gt;src/shared/lib/delay.ts</title>
<path fill="none" stroke="#000000" stroke-width="2" stroke-opacity="0.200000" d="M1182.98,-146.86C1194.9,-145.2 1207.63,-143.44 1218.97,-141.86"/>
<polygon fill="#000000" fill-opacity="0.200000" stroke="#000000" stroke-width="2" stroke-opacity="0.200000" points="1219.08,-143.97 1224.73,-141.06 1218.5,-139.81 1219.08,-143.97"/>
</g>
<!-- src/shared/chrome&#45;api&#45;mock/tab.mock.ts&#45;&gt;src/shared/lib/delay.ts -->
<g id="edge40" class="edge">
<title>src/shared/chrome&#45;api&#45;mock/tab.mock.ts&#45;&gt;src/shared/lib/delay.ts</title>
<path fill="none" stroke="#000000" stroke-width="2" stroke-opacity="0.200000" d="M1169.03,-125.94C1184.45,-127.95 1203.27,-130.4 1219.27,-132.48"/>
<polygon fill="#000000" fill-opacity="0.200000" stroke="#000000" stroke-width="2" stroke-opacity="0.200000" points="1218.61,-134.51 1224.83,-133.2 1219.15,-130.35 1218.61,-134.51"/>
</g>
<!-- src/shared/chrome&#45;api&#45;mock/tabGroups.mock.ts&#45;&gt;src/shared/lib/delay.ts -->
<g id="edge41" class="edge">
<title>src/shared/chrome&#45;api&#45;mock/tabGroups.mock.ts&#45;&gt;src/shared/lib/delay.ts</title>
<path fill="none" stroke="#000000" stroke-width="2" stroke-opacity="0.200000" d="M1179.63,-100.72C1185.86,-102.58 1192.16,-104.68 1198,-107 1209.05,-111.39 1220.73,-117.4 1230.54,-122.89"/>
<polygon fill="#000000" fill-opacity="0.200000" stroke="#000000" stroke-width="2" stroke-opacity="0.200000" points="1229.42,-124.67 1235.67,-125.83 1231.5,-121.02 1229.42,-124.67"/>
</g>
<!-- src/shared/lib/packery.d.ts -->
<g id="node42" class="node">
<title>src/shared/lib/packery.d.ts</title>
<g id="a_node42"><a xlink:href="src/shared/lib/packery.d.ts" xlink:title="packery.d.ts">
<path fill="#ccffcc" stroke="black" d="M1280.83,-208.25C1280.83,-208.25 1229.17,-208.25 1229.17,-208.25 1226.08,-208.25 1223,-205.17 1223,-202.08 1223,-202.08 1223,-195.92 1223,-195.92 1223,-192.83 1226.08,-189.75 1229.17,-189.75 1229.17,-189.75 1280.83,-189.75 1280.83,-189.75 1283.92,-189.75 1287,-192.83 1287,-195.92 1287,-195.92 1287,-202.08 1287,-202.08 1287,-205.17 1283.92,-208.25 1280.83,-208.25"/>
<text text-anchor="start" x="1231" y="-195.7" font-family="Helvetica,sans-Serif" font-size="9.00">packery.d.ts</text>
</a>
</g>
</g>
<!-- src/vite&#45;env.d.ts -->
<g id="node43" class="node">
<title>src/vite&#45;env.d.ts</title>
<g id="a_node43"><a xlink:href="src/vite-env.d.ts" xlink:title="vite&#45;env.d.ts">
<path fill="#ccffcc" stroke="black" d="M76.83,-527.25C76.83,-527.25 25.17,-527.25 25.17,-527.25 22.08,-527.25 19,-524.17 19,-521.08 19,-521.08 19,-514.92 19,-514.92 19,-511.83 22.08,-508.75 25.17,-508.75 25.17,-508.75 76.83,-508.75 76.83,-508.75 79.92,-508.75 83,-511.83 83,-514.92 83,-514.92 83,-521.08 83,-521.08 83,-524.17 79.92,-527.25 76.83,-527.25"/>
<text text-anchor="start" x="27" y="-514.7" font-family="Helvetica,sans-Serif" font-size="9.00">vite&#45;env.d.ts</text>
</a>
</g>
</g>
<!-- src/widgets/GridContent/GridContent.lib.ts -->
<g id="node44" class="node">
<title>src/widgets/GridContent/GridContent.lib.ts</title>
<g id="a_node44"><a xlink:href="src/widgets/GridContent/GridContent.lib.ts" xlink:title="GridContent.lib.ts">
<path fill="#ddfeff" stroke="black" d="M437.46,-691.25C437.46,-691.25 363.29,-691.25 363.29,-691.25 360.21,-691.25 357.12,-688.17 357.12,-685.08 357.12,-685.08 357.12,-678.92 357.12,-678.92 357.12,-675.83 360.21,-672.75 363.29,-672.75 363.29,-672.75 437.46,-672.75 437.46,-672.75 440.54,-672.75 443.62,-675.83 443.62,-678.92 443.62,-678.92 443.62,-685.08 443.62,-685.08 443.62,-688.17 440.54,-691.25 437.46,-691.25"/>
<text text-anchor="start" x="365.12" y="-678.7" font-family="Helvetica,sans-Serif" font-size="9.00">GridContent.lib.ts</text>
</a>
</g>
</g>
<!-- src/widgets/GridContent/GridContent.lib.ts&#45;&gt;src/entities/bookmark/index.ts -->
<g id="edge48" class="edge">
<title>src/widgets/GridContent/GridContent.lib.ts&#45;&gt;src/entities/bookmark/index.ts</title>
<path fill="none" stroke="#000000" stroke-width="2" stroke-opacity="0.200000" d="M444.01,-680.03C480.09,-677.56 532.89,-672.09 577.5,-660 635.56,-644.27 699.27,-613.6 733.79,-595.77"/>
<polygon fill="#000000" fill-opacity="0.200000" stroke="#000000" stroke-width="2" stroke-opacity="0.200000" points="734.48,-597.78 738.83,-593.14 732.54,-594.05 734.48,-597.78"/>
</g>
<!-- src/widgets/GridContent/GridContent.ui.tsx&#45;&gt;src/entities/bookmark/index.ts -->
<g id="edge50" class="edge">
<title>src/widgets/GridContent/GridContent.ui.tsx&#45;&gt;src/entities/bookmark/index.ts</title>
<path fill="none" stroke="#000000" stroke-width="2" stroke-opacity="0.200000" d="M324.34,-691.72C332.38,-693.9 341.13,-695.9 349.38,-697 394.42,-703.03 406.38,-701.27 451.62,-697 564.27,-686.36 601.08,-694.8 699.5,-639 718.06,-628.48 735.28,-610.98 746.46,-598.15"/>
<polygon fill="#000000" fill-opacity="0.200000" stroke="#000000" stroke-width="2" stroke-opacity="0.200000" points="747.8,-599.81 750.07,-593.88 744.6,-597.1 747.8,-599.81"/>
</g>
<!-- src/widgets/GridContent/GridContent.ui.tsx&#45;&gt;src/entities/tab/index.ts -->
<g id="edge51" class="edge">
<title>src/widgets/GridContent/GridContent.ui.tsx&#45;&gt;src/entities/tab/index.ts</title>
<path fill="none" stroke="#000000" stroke-width="2" stroke-opacity="0.200000" d="M310.06,-691.71C320.71,-697.71 335.36,-704.85 349.38,-708 501.21,-742.08 547.58,-741.7 699.5,-708 712.2,-705.18 725.39,-699.39 736.17,-693.79"/>
<polygon fill="#000000" fill-opacity="0.200000" stroke="#000000" stroke-width="2" stroke-opacity="0.200000" points="736.95,-695.76 741.22,-691.05 734.95,-692.07 736.95,-695.76"/>
</g>
<!-- src/widgets/GridContent/GridContent.ui.tsx&#45;&gt;src/widgets/GridContent/GridContent.lib.ts -->
<g id="edge49" class="edge">
<title>src/widgets/GridContent/GridContent.ui.tsx&#45;&gt;src/widgets/GridContent/GridContent.lib.ts</title>
<path fill="none" stroke="#000000" stroke-width="2" stroke-opacity="0.200000" d="M337.99,-682C341.28,-682 344.63,-682 347.96,-682"/>
<polygon fill="#000000" fill-opacity="0.200000" stroke="#000000" stroke-width="2" stroke-opacity="0.200000" points="347.71,-684.1 353.71,-682 347.71,-679.9 347.71,-684.1"/>
</g>
<!-- src/widgets/Header/Header.const.ts -->
<g id="node46" class="node">
<title>src/widgets/Header/Header.const.ts</title>
<g id="a_node46"><a xlink:href="src/widgets/Header/Header.const.ts" xlink:title="Header.const.ts">
<path fill="#ddfeff" stroke="black" d="M550.46,-595.25C550.46,-595.25 483.79,-595.25 483.79,-595.25 480.71,-595.25 477.62,-592.17 477.62,-589.08 477.62,-589.08 477.62,-582.92 477.62,-582.92 477.62,-579.83 480.71,-576.75 483.79,-576.75 483.79,-576.75 550.46,-576.75 550.46,-576.75 553.54,-576.75 556.62,-579.83 556.62,-582.92 556.62,-582.92 556.62,-589.08 556.62,-589.08 556.62,-592.17 553.54,-595.25 550.46,-595.25"/>
<text text-anchor="start" x="485.62" y="-582.7" font-family="Helvetica,sans-Serif" font-size="9.00">Header.const.ts</text>
</a>
</g>
</g>
<!-- src/widgets/Header/Header.lib.ts -->
<g id="node47" class="node">
<title>src/widgets/Header/Header.lib.ts</title>
<g id="a_node47"><a xlink:href="src/widgets/Header/Header.lib.ts" xlink:title="Header.lib.ts">
<path fill="#ddfeff" stroke="black" d="M427.71,-599.25C427.71,-599.25 373.04,-599.25 373.04,-599.25 369.96,-599.25 366.88,-596.17 366.88,-593.08 366.88,-593.08 366.88,-586.92 366.88,-586.92 366.88,-583.83 369.96,-580.75 373.04,-580.75 373.04,-580.75 427.71,-580.75 427.71,-580.75 430.79,-580.75 433.88,-583.83 433.88,-586.92 433.88,-586.92 433.88,-593.08 433.88,-593.08 433.88,-596.17 430.79,-599.25 427.71,-599.25"/>
<text text-anchor="start" x="374.88" y="-586.7" font-family="Helvetica,sans-Serif" font-size="9.00">Header.lib.ts</text>
</a>
</g>
</g>
<!-- src/widgets/Header/Header.lib.ts&#45;&gt;src/widgets/Header/Header.const.ts -->
<g id="edge53" class="edge">
<title>src/widgets/Header/Header.lib.ts&#45;&gt;src/widgets/Header/Header.const.ts</title>
<path fill="none" stroke="#000000" stroke-width="2" stroke-opacity="0.200000" d="M434.26,-588.85C444.81,-588.49 456.73,-588.07 468.14,-587.67"/>
<polygon fill="#000000" fill-opacity="0.200000" stroke="#000000" stroke-width="2" stroke-opacity="0.200000" points="468.2,-589.77 474.12,-587.46 468.05,-585.57 468.2,-589.77"/>
</g>
<!-- src/widgets/Header/Header.module.scss -->
<g id="node48" class="node">
<title>src/widgets/Header/Header.module.scss</title>
<g id="a_node48"><a xlink:href="src/widgets/Header/Header.module.scss" xlink:title="Header.module.scss">
<path fill="#ffffcc" stroke="black" d="M443.83,-630.25C443.83,-630.25 356.92,-630.25 356.92,-630.25 353.83,-630.25 350.75,-627.17 350.75,-624.08 350.75,-624.08 350.75,-617.92 350.75,-617.92 350.75,-614.83 353.83,-611.75 356.92,-611.75 356.92,-611.75 443.83,-611.75 443.83,-611.75 446.92,-611.75 450,-614.83 450,-617.92 450,-617.92 450,-624.08 450,-624.08 450,-627.17 446.92,-630.25 443.83,-630.25"/>
<text text-anchor="start" x="358.75" y="-617.7" font-family="Helvetica,sans-Serif" font-size="9.00">Header.module.scss</text>
</a>
</g>
</g>
<!-- src/widgets/Header/Header.ui.tsx&#45;&gt;src/entities/bookmark/index.ts -->
<g id="edge57" class="edge">
<title>src/widgets/Header/Header.ui.tsx&#45;&gt;src/entities/bookmark/index.ts</title>
<path fill="none" stroke="#000000" stroke-width="2" stroke-opacity="0.200000" d="M328.36,-571.71C335.3,-571 342.57,-570.37 349.38,-570 450.62,-564.49 487.33,-524.63 577.5,-571 582.88,-573.76 580.11,-579.26 585.5,-582 629.36,-604.34 687.88,-598.24 724.62,-590.85"/>
<polygon fill="#000000" fill-opacity="0.200000" stroke="#000000" stroke-width="2" stroke-opacity="0.200000" points="724.63,-593 730.06,-589.7 723.76,-588.89 724.63,-593"/>
</g>
<!-- src/widgets/Header/Header.ui.tsx&#45;&gt;src/shared/icons/index.ts -->
<g id="edge61" class="edge">
<title>src/widgets/Header/Header.ui.tsx&#45;&gt;src/shared/icons/index.ts</title>
<path fill="none" stroke="#000000" stroke-width="2" stroke-opacity="0.200000" d="M311.14,-566.46C321.74,-560.92 335.95,-554.38 349.38,-551 421.41,-532.89 441.85,-540 516.12,-540 516.12,-540 516.12,-540 761.5,-540 853.16,-540 948.22,-474.35 987.24,-444.03"/>
<polygon fill="#000000" fill-opacity="0.200000" stroke="#000000" stroke-width="2" stroke-opacity="0.200000" points="988.5,-445.71 991.91,-440.34 985.9,-442.41 988.5,-445.71"/>
</g>
<!-- src/widgets/Header/Header.ui.tsx&#45;&gt;src/features/folder/create/index.ts -->
<g id="edge58" class="edge">
<title>src/widgets/Header/Header.ui.tsx&#45;&gt;src/features/folder/create/index.ts</title>
<path fill="none" stroke="#000000" stroke-width="2" stroke-opacity="0.200000" d="M301.93,-566.29C319.71,-543.43 364.39,-485.98 386.53,-457.51"/>
<polygon fill="#000000" fill-opacity="0.200000" stroke="#000000" stroke-width="2" stroke-opacity="0.200000" points="388.01,-459.04 390.03,-453.01 384.69,-456.46 388.01,-459.04"/>
</g>
<!-- src/widgets/Header/Header.ui.tsx&#45;&gt;src/features/folder/delete/index.ts -->
<g id="edge59" class="edge">
<title>src/widgets/Header/Header.ui.tsx&#45;&gt;src/features/folder/delete/index.ts</title>
<path fill="none" stroke="#000000" stroke-width="2" stroke-opacity="0.200000" d="M294.72,-566.55C296.28,-534.84 304.71,-430.19 349.38,-360 356.03,-349.54 366.25,-340.47 375.73,-333.54"/>
<polygon fill="#000000" fill-opacity="0.200000" stroke="#000000" stroke-width="2" stroke-opacity="0.200000" points="376.85,-335.32 380.59,-330.18 374.46,-331.86 376.85,-335.32"/>
</g>
<!-- src/widgets/Header/Header.ui.tsx&#45;&gt;src/features/folder/edit/index.ts -->
<g id="edge60" class="edge">
<title>src/widgets/Header/Header.ui.tsx&#45;&gt;src/features/folder/edit/index.ts</title>
<path fill="none" stroke="#000000" stroke-width="2" stroke-opacity="0.200000" d="M295.91,-566.45C300.41,-540.86 315.4,-469.36 349.38,-421 356.5,-410.85 366.79,-401.83 376.18,-394.85"/>
<polygon fill="#000000" fill-opacity="0.200000" stroke="#000000" stroke-width="2" stroke-opacity="0.200000" points="377.29,-396.64 380.98,-391.45 374.87,-393.21 377.29,-396.64"/>
</g>
<!-- src/widgets/Header/Header.ui.tsx&#45;&gt;src/widgets/Header/Header.const.ts -->
<g id="edge54" class="edge">
<title>src/widgets/Header/Header.ui.tsx&#45;&gt;src/widgets/Header/Header.const.ts</title>
<path fill="none" stroke="#000000" stroke-width="2" stroke-opacity="0.200000" d="M328.41,-575.28C335.34,-575.17 342.59,-575.06 349.38,-575 394.82,-574.59 406.34,-571.17 451.62,-575 457.12,-575.47 462.85,-576.15 468.54,-576.95"/>
<polygon fill="#000000" fill-opacity="0.200000" stroke="#000000" stroke-width="2" stroke-opacity="0.200000" points="468.14,-579.02 474.39,-577.85 468.77,-574.87 468.14,-579.02"/>
</g>
<!-- src/widgets/Header/Header.ui.tsx&#45;&gt;src/widgets/Header/Header.lib.ts -->
<g id="edge55" class="edge">
<title>src/widgets/Header/Header.ui.tsx&#45;&gt;src/widgets/Header/Header.lib.ts</title>
<path fill="none" stroke="#000000" stroke-width="2" stroke-opacity="0.200000" d="M328.47,-580.55C337.82,-581.79 348.06,-583.16 357.79,-584.45"/>
<polygon fill="#000000" fill-opacity="0.200000" stroke="#000000" stroke-width="2" stroke-opacity="0.200000" points="357.3,-586.51 363.53,-585.22 357.86,-582.35 357.3,-586.51"/>
</g>
<!-- src/widgets/Header/Header.ui.tsx&#45;&gt;src/widgets/Header/Header.module.scss -->
<g id="edge56" class="edge">
<title>src/widgets/Header/Header.ui.tsx&#45;&gt;src/widgets/Header/Header.module.scss</title>
<path fill="none" stroke="#000000" stroke-width="2" stroke-opacity="0.200000" d="M310.86,-585.67C321.59,-591.72 336.04,-599.4 349.38,-605 352.15,-606.16 355.04,-607.29 357.97,-608.38"/>
<polygon fill="#000000" fill-opacity="0.200000" stroke="#000000" stroke-width="2" stroke-opacity="0.200000" points="357.05,-610.28 363.41,-610.3 358.45,-606.32 357.05,-610.28"/>
</g>
</g>
</svg>
